<?xml version="1.0" encoding="UTF-8" standalone="no"?>
<!-- Created with Inkscape (http://www.inkscape.org/) -->

<svg
   width="1080"
   height="270"
   viewBox="0 0 285.75 71.4375"
   version="1.1"
   id="svg1"
   sodipodi:docname="default.svg"
   inkscape:version="1.3.2 (091e20e, 2023-11-25, custom)"
   xml:space="preserve"
   inkscape:export-filename="bitmap.png"
   inkscape:export-xdpi="96"
   inkscape:export-ydpi="96"
   xmlns:inkscape="http://www.inkscape.org/namespaces/inkscape"
   xmlns:sodipodi="http://sodipodi.sourceforge.net/DTD/sodipodi-0.dtd"
   xmlns="http://www.w3.org/2000/svg"
   xmlns:svg="http://www.w3.org/2000/svg"><sodipodi:namedview
     id="namedview1"
     pagecolor="#ffffff"
     bordercolor="#000000"
     borderopacity="0.25"
     inkscape:showpageshadow="2"
     inkscape:pageopacity="0.0"
     inkscape:pagecheckerboard="0"
     inkscape:deskcolor="#d1d1d1"
     inkscape:document-units="px"
     inkscape:zoom="0.80061995"
     inkscape:cx="595.7883"
     inkscape:cy="280.4077"
     inkscape:window-width="1920"
     inkscape:window-height="1017"
     inkscape:window-x="-8"
     inkscape:window-y="-8"
     inkscape:window-maximized="1"
     inkscape:current-layer="layer1" /><defs
     id="defs1" /><g
     inkscape:label="Layer 1"
     inkscape:groupmode="layer"
     id="layer1"><path
       style="fill:#f6faff;fill-opacity:1;stroke-width:0.118784"
       d="m 7.2304881,10.500048 0.0968,0.0421 0.0385,0.0928 0.0385,0.0928 -0.0522,1.96162 -0.0522,1.96163 0.0198,0.41442 0.0198,0.41443 0.0329,0.18271 0.0329,0.18271 0.15761,0.48714 0.15761,0.48714 0.0756,0.32999 0.0756,0.33 2.4e-4,0.22215 2.3e-4,0.22215 -0.0479,0.16146 -0.0479,0.16146 -0.10134,0.13216 -0.10133,0.13216 -0.18857,0.10518 -0.18857,0.10518 -0.19974,0.0626 -0.19974,0.0626 h -0.18298 -0.18298 l -0.0628,-0.0798 -0.0628,-0.0798 -0.0219,-0.20465 -0.0219,-0.20466 0.0373,-0.39911 0.0373,-0.39912 0.0628,-0.33 0.0628,-0.32999 0.049,-0.17286 0.049,-0.17285 0.0968,-0.28286 0.0968,-0.28285 0.0121,-0.53428 0.0121,-0.53428 -0.0492,-1.31999 -0.0492,-1.31999 -0.021,-0.78671 -0.021,-0.78671 0.0513,-0.0513 0.0513,-0.0513 0.15914,-0.0341 0.15915,-0.0341 0.0377,10e-4 0.0377,0.001 z m -0.37372,7.02373 -0.057,0.0559 -0.003,0.10003 -0.003,0.10003 0.0731,0.0778 0.0731,0.0778 h 0.0946 0.0946 l 0.0727,-0.0683 0.0727,-0.0683 v -0.0909 -0.0909 l -0.0335,-0.0626 -0.0335,-0.0626 -0.0686,-0.0284 -0.0687,-0.0283 -0.0786,0.0164 -0.0786,0.0164 z"
       id="path496" /><path
       style="fill:#f6faff;fill-opacity:1;stroke-width:0.118784"
       d="m 193.0355,6.0477935 0.0629,0.0167 0.0258,0.0243 0.0258,0.0243 0.044,1.41043 0.044,1.41043 0.033,0.91142 0.033,0.9114205 0.0325,0.25143 0.0324,0.25143 0.11204,0.31428 0.11203,0.31428 0.12,0.34571 0.12001,0.34571 0.0531,0.26511 0.0531,0.26511 -0.0163,0.26917 -0.0162,0.26917 -0.0696,0.18329 -0.0696,0.18329 -0.0943,0.10743 -0.0943,0.10742 -0.0203,4e-5 -0.0203,4e-5 v -0.36932 -0.36933 l -0.0314,-0.0157 -0.0314,-0.0157 -0.0157,0.41766 -0.0157,0.41766 -0.0471,0.0297 -0.0471,0.0297 -0.0687,3.7e-4 -0.0687,3.7e-4 0.006,-0.45506 0.006,-0.45506 -0.0314,-0.009 -0.0314,-0.009 -0.0204,0.4352 -0.0204,0.4352 -0.0315,0.0315 -0.0315,0.0315 -0.066,-0.0209 -0.066,-0.0209 v -0.43788 -0.43787 h -0.0279 -0.0279 l -0.0183,0.13357 -0.0183,0.13357 -0.0208,0.23571 -0.0208,0.23571 -0.0151,0.0262 -0.0151,0.0262 -0.12154,-0.1676 -0.12155,-0.1676 -0.0679,-0.17286 -0.0679,-0.17285 7.4e-4,-0.39286 7.4e-4,-0.39285 0.0517,-0.23451 0.0518,-0.23451 0.12566,-0.39306 0.12565,-0.39306 0.052,-0.26472 0.052,-0.26472 -0.0379,-0.71056 -0.0379,-0.7105505 -0.0778,-0.84856 -0.0778,-0.84857 2.3e-4,-0.21999 2.4e-4,-0.22 -0.0517,-0.63897 -0.0517,-0.63896 0.0435,-0.0426 0.0435,-0.0426 0.18857,-0.0156 0.18857,-0.0156 z"
       id="path495" /><path
       style="fill:#f6faff;fill-opacity:1;stroke-width:0.118784"
       d="m 82.642717,7.4264475 0.13852,0.0646 -0.0209,0.6986 -0.0209,0.6986 -0.0201,1.3356995 -0.0201,1.335701 0.0379,0.47143 0.0379,0.47142 0.0472,0.23091 0.0472,0.2309 0.16676,0.47623 0.16676,0.476239 0.0526,0.23174 0.0526,0.23175 0.002,0.25539 0.002,0.25539 -0.0381,0.14126 -0.0381,0.14124 -0.0568,0.11018 -0.0568,0.11018 -0.10326,0.10466 -0.10325,0.10467 -0.11827,0.0603 -0.11826,0.0603 h -0.17536 -0.17536 l -0.12109,-0.0618 -0.12108,-0.0618 -0.11464,-0.13393 -0.11464,-0.13393 -0.069,-0.22072 -0.069,-0.22073 0.002,-0.29856 0.002,-0.29857 0.0407,-0.18777 0.0407,-0.18777 0.1665,-0.552179 0.16649,-0.55217 0.0389,-0.26576 0.0389,-0.26576 -0.0209,-0.75428 -0.0209,-0.754291 -0.0468,-1.0685595 -0.0468,-1.06856 -0.008,-0.58055 -0.008,-0.58055 0.0832,-0.0403 0.0832,-0.0403 0.13683,-0.0166 0.13682,-0.0166 z m 0.16414,6.4669395 -0.0295,0.0552 -0.004,0.45849 -0.004,0.45849 0.0613,0.0756 0.0613,0.0756 0.0135,-0.0157 0.0135,-0.0157 -0.0147,-0.57357 -0.0147,-0.57357 h -0.0264 -0.0264 z m -0.34272,0.49321 -0.009,0.52754 0.036,0.0434 0.036,0.0434 h 0.0276 0.0276 v -0.53171 -0.53171 l -0.0196,-0.051 -0.0196,-0.051 -0.0354,0.0118 -0.0354,0.0118 z m -0.34571,0.0211 -0.009,0.4901 0.0465,0.0386 0.0465,0.0386 0.0328,-0.0203 0.0328,-0.0203 v -0.22902 -0.22903 l -0.0205,-0.28906 -0.0205,-0.28907 -0.0502,0.01 -0.0502,0.01 z"
       id="path494" /><path
       style="fill:#f6faff;fill-opacity:1;stroke-width:0.118784"
       d="m 142.40797,4.8955713 0.10212,0.0444 0.0355,0.078 0.0355,0.078 -0.096,2.2728 -0.096,2.2728 0.0122,0.0943 0.0122,0.0943 0.0344,0.2671397 0.0344,0.26714 0.18646,0.55604 0.18646,0.55603 0.0506,0.29253 0.0506,0.29253 -0.014,0.29857 -0.014,0.29857 -0.068,0.17535 -0.068,0.17535 -0.11312,0.13216 -0.11313,0.13216 -0.13019,0.068 -0.13019,0.068 -0.17286,-0.001 -0.17286,-10e-4 -0.12571,-0.0649 -0.12571,-0.0649 -0.0847,-0.0893 -0.0847,-0.0893 -0.0882,-0.18856 -0.0882,-0.18857 7.4e-4,-0.37714 7.4e-4,-0.37714 0.0567,-0.26714 0.0567,-0.26714 0.16712,-0.51857 0.16713,-0.51857 0.0374,-0.22709 0.0374,-0.2270897 0.005,-0.44862 0.005,-0.44862 -0.0412,-1.74426 -0.0412,-1.74428 0.0208,-0.23571 0.0208,-0.23571 0.0464,-0.0733 0.0463,-0.0733 0.10655,-0.0445 0.10654,-0.0445 0.0717,0.001 0.0717,0.001 z"
       id="path493" /><path
       style="fill:#f6faff;fill-opacity:1;stroke-width:0.118784"
       d="m 140.15015,22.523269 0.10634,0.0481 -0.0173,0.65189 -0.0172,0.65189 -0.0683,1.47713 -0.0683,1.47713 0.0196,0.29738 0.0196,0.29737 0.0483,0.23386 0.0483,0.23386 0.0791,0.20733 0.0791,0.20733 0.0933,0.26637 0.0933,0.26636 0.065,0.37792 0.065,0.37791 0.004,0.69142 0.004,0.69143 -0.80985,0.008 -0.80986,0.008 -0.0309,-0.0812 -0.0309,-0.0811 v -0.83213 -0.83213 l 0.049,-0.24224 0.049,-0.24225 0.17703,-0.53428 0.17703,-0.53428 0.0243,-1.17856 0.0243,-1.17856 -0.004,-1.32974 -0.004,-1.32975 0.0493,-0.0493 0.0493,-0.0493 0.21487,-0.0125 0.21487,-0.0125 z m -0.10423,6.5852 0.002,0.20381 0.0263,0.47945 0.0263,0.47945 0.0436,0.0362 0.0436,0.0362 0.0356,-0.0356 0.0356,-0.0356 -0.0299,-0.65289 -0.0299,-0.65289 -0.0257,-0.041 -0.0257,-0.041 -0.0521,0.0101 -0.0521,0.0101 z m -0.5897,0.50315 0.01,0.67494 0.0276,0.0278 0.0276,0.0278 0.0539,-0.0207 0.0539,-0.0207 -0.0221,-0.66509 -0.0221,-0.6651 -0.0169,-0.0273 -0.0169,-0.0273 -0.0521,0.0104 -0.0521,0.0104 z"
       id="path492" /><path
       style="fill:#f6faff;fill-opacity:1;stroke-width:0.118784"
       d="m 28.832433,27.815364 0.07971,-0.01739 1.574244,2.959504 1.57425,2.959512 0.161738,0.01888 0.161738,0.01888 0.188548,0.06662 0.188559,0.06662 0.186102,0.139058 0.186101,0.139057 0.161932,0.306186 0.161933,0.306187 0.0067,0.233347 0.0067,0.233335 -0.07383,0.201 -0.07382,0.201002 -0.119092,0.116605 -0.119046,0.116693 -0.09931,0.05212 -0.0993,0.05211 -0.173178,0.0087 -0.173176,0.0087 -0.17016,-0.06224 -0.17016,-0.06224 -0.138075,-0.109193 -0.138067,-0.109187 -0.109245,-0.130618 -0.109245,-0.130631 -0.07609,-0.144656 -0.07609,-0.144665 -0.04674,-0.17884 -0.04674,-0.17884 0.01163,-0.205696 0.01163,-0.205711 0.08088,-0.167555 0.08087,-0.167541 3.86e-4,-0.07337 3.85e-4,-0.07337 -1.544364,-2.907283 -1.54437,-2.907294 0.03983,-0.07784 0.03987,-0.07776 0.05772,-0.02713 0.05772,-0.02713 z"
       id="path491" /><path
       style="fill:#f6faff;fill-opacity:1;stroke-width:0.118784"
       d="m 184.60621,54.260836 0.0663,0.08621 -10e-4,0.0786 -0.001,0.0786 -0.80971,1.352482 -0.80972,1.352491 -0.24262,0.47636 -0.24254,0.476418 -0.16691,0.400801 -0.16692,0.4008 -0.0709,0.25774 -0.0709,0.25774 -0.10208,0.284724 -0.10207,0.284723 -0.22171,0.469964 -0.22171,0.469956 -0.43774,0.771276 -0.43773,0.771268 -0.0732,0.02101 -0.0732,0.02101 -0.20214,-0.155834 -0.20217,-0.155848 -0.18833,-0.192306 -0.18834,-0.192311 -0.0867,-0.122739 -0.0867,-0.122743 0.55074,-0.996395 0.55073,-0.996395 0.20662,-0.278516 0.20662,-0.278524 0.31739,-0.407806 0.31738,-0.407807 0.2497,-0.356041 0.2497,-0.356041 0.51688,-0.863407 0.51688,-0.863417 0.29634,-0.5903 0.29635,-0.59031 0.11465,-0.195025 0.11465,-0.195025 0.12073,-0.08157 0.12072,-0.08158 0.11545,0.01262 0.11544,0.01262 0.0485,0.02796 0.0485,0.02797 z"
       id="path490" /><path
       style="fill:#f6faff;fill-opacity:1;stroke-width:0.118784"
       d="m 195.67882,31.255764 0.10562,0.0266 0.0515,0.0516 0.0515,0.0516 0.004,1.38954 0.004,1.38954 0.0113,0.20367 0.0113,0.20368 -0.0883,0.0425 -0.0884,0.0425 0.0165,0.0838 0.0165,0.0838 0.0347,0.31428 0.0347,0.31429 0.0775,0.58142 0.0775,0.58142 0.0941,0.48714 0.0941,0.48714 0.0463,0.39266 0.0463,0.39267 v 0.44144 0.44144 l -0.0483,0.18558 -0.0483,0.18558 -0.0945,0.16524 -0.0945,0.16525 -0.1164,0.0909 -0.1164,0.0909 -0.10684,0.0363 -0.10683,0.0363 h -0.0938 -0.0938 l -0.12336,-0.037 -0.12336,-0.037 -0.13581,-0.11954 -0.1358,-0.11954 -0.0691,-0.14693 -0.0691,-0.14692 -0.0472,-0.23872 -0.0472,-0.23871 0.0188,-0.31428 0.0188,-0.31428 0.0798,-0.77 0.0798,-0.76999 0.12392,-0.86022 0.12391,-0.86023 0.0201,-0.30694 0.0201,-0.30693 -0.0673,-0.0214 -0.0673,-0.0214 -0.0195,-0.0776 -0.0195,-0.0776 0.0491,-0.32105 0.0491,-0.32106 0.0163,-1.15436 0.0163,-1.15437 0.0471,-0.0911 0.0471,-0.0911 0.051,-0.0196 0.051,-0.0196 0.16233,-0.0142 0.16232,-0.0142 z m -0.1428,3.59046 0.0165,0.0413 0.002,-0.0602 0.002,-0.0602 -0.019,0.019 -0.019,0.019 z m 0.0323,0.5991 0.0207,0.54214 0.0458,0.50285 0.0458,0.50286 0.0208,0.39285 0.0208,0.39285 0.008,0.0943 0.008,0.0943 0.0235,0.51857 0.0235,0.51857 -0.0358,0.35051 -0.0358,0.35051 -0.0352,0.1052 -0.0352,0.1052 -0.064,0.0707 -0.064,0.0707 h 0.0345 0.0345 l 0.1343,-0.10244 0.13429,-0.10243 0.0725,-0.14113 0.0725,-0.14114 0.0465,-0.22 0.0465,-0.22 5.5e-4,-0.30049 5.6e-4,-0.30048 -0.0936,-0.54808 -0.0936,-0.54808 -0.14074,-1.05284 -0.14073,-1.05285 -0.0215,-0.21214 -0.0214,-0.21214 h -0.0163 -0.0163 z m -0.49516,1.14123 -0.17141,1.25518 -0.0377,0.44831 -0.0377,0.44832 0.0169,0.30596 0.0169,0.30597 0.0685,0.19569 0.0685,0.1957 0.0681,0.0996 0.0681,0.0997 0.0786,0.0489 0.0786,0.0489 -0.0696,-0.078 -0.0696,-0.078 -0.0463,-0.1311 -0.0463,-0.1311 -0.038,-0.25973 -0.038,-0.25973 0.0194,-0.48827 0.0194,-0.48827 0.0617,-0.51856 0.0617,-0.51857 0.0491,-0.70713 0.0491,-0.70714 0.0183,-0.18838 0.0183,-0.18838 -0.0175,0.0175 -0.0175,0.0175 z m 0.29915,0.0295 -0.004,0.15715 -0.0789,0.72285 -0.0789,0.72285 -0.0188,0.40856 -0.0188,0.40857 0.05,0.28547 0.05,0.28546 0.0402,0.1207 0.0402,0.1207 0.0397,0.013 0.0397,0.013 0.0513,-0.12062 0.0513,-0.12063 0.0138,-0.47142 0.0138,-0.47143 -0.0332,-0.65999 -0.0332,-0.66 -0.0388,-0.54999 -0.0388,-0.55 -0.0212,0.0943 -0.0212,0.0943 z"
       id="path489" /><path
       style="fill:#f6faff;fill-opacity:1;stroke-width:0.118784"
       d="m 240.21468,59.317971 0.13578,0.048 0.035,0.0768 0.035,0.0768 -0.0541,1.02767 -0.0542,1.02768 -0.0449,0.97427 -0.0449,0.97428 -0.0185,0.22 -0.0186,0.22 -0.0469,0.42649 -0.0469,0.42649 0.0307,0.1907 0.0307,0.1907 0.0792,0.15627 0.0792,0.15628 0.16219,0.177469 0.1622,0.17746 0.0279,0.11763 0.0279,0.11763 -0.0329,0.84857 -0.0329,0.84856 -0.0219,0.0195 -0.0219,0.0195 -0.37714,0.0835 -0.37714,0.0835 -0.29209,0.0816 -0.29209,0.0816 -0.0192,-0.0192 -0.0192,-0.0192 -0.0249,-0.33818 -0.0249,-0.33817 -0.0374,-0.67786 -0.0374,-0.67786 0.0392,-0.11877 0.0392,-0.11878 0.19647,-0.209069 0.19648,-0.20907 0.0477,-0.0943 0.0477,-0.0943 0.0353,-0.16655 0.0353,-0.16655 v -0.31958 -0.31958 l -0.0329,-0.58243 -0.0329,-0.58244 -0.0571,-1.79141 -0.0571,-1.79142 0.0417,-0.0825 0.0417,-0.0825 0.12756,-0.051 0.12756,-0.051 0.1015,0.003 0.10151,0.003 z"
       id="path488" /><path
       style="fill:#f6faff;fill-opacity:1;stroke-width:0.118784"
       d="m 104.57994,55.095405 0.0804,0.026 0.0704,0.0377 0.0704,0.0377 0.0257,0.0688 0.0257,0.0688 -0.0256,0.36143 -0.0256,0.36142 -0.0799,1.46142 -0.0799,1.46141 -0.0308,0.75428 -0.0307,0.75429 0.0281,0.2918 0.0281,0.29181 0.083,0.14158 0.083,0.14158 0.0868,0.10089 0.0868,0.1009 0.101,0.14895 0.101,0.14896 0.0823,0.21247 0.0823,0.21247 3e-5,0.28285 3e-5,0.28286 -0.0548,0.20428 -0.0548,0.20429 -0.0917,0.19298 -0.0917,0.19299 -0.14112,0.15695 -0.14112,0.15696 -0.14855,0.0698 -0.14855,0.0698 -0.1516,-0.0146 -0.1516,-0.0146 -0.11662,-0.0933 -0.11662,-0.0933 -0.14513,-0.19035 -0.14512,-0.19036 -0.0818,-0.21584 -0.0818,-0.21583 -0.035,-0.2297 -0.035,-0.22969 0.0353,-0.26548 0.0353,-0.26549 0.0624,-0.14551 0.0624,-0.14552 0.19684,-0.2393 0.19685,-0.2393 0.066,-0.0943 0.066,-0.0943 0.0404,-0.13509 0.0404,-0.1351 -0.0379,-0.90204 -0.0379,-0.90203 -0.0762,-1.87874 -0.0762,-1.87875 0.0158,-0.0411 0.0158,-0.0411 0.11188,-0.0533 0.11189,-0.0533 0.1303,-0.0136 0.13031,-0.0136 z m -0.34607,0.32575 -0.0457,0.0802 0.0373,0.082 0.0373,0.082 0.0799,0.0364 0.0799,0.0364 0.0855,-0.0636 0.0855,-0.0636 0.0101,-0.0852 0.0101,-0.0852 -0.0405,-0.0488 -0.0405,-0.0488 -0.064,-0.0238 -0.0639,-0.0238 -0.0629,0.0228 -0.0629,0.0228 z"
       id="path487" /><path
       style="fill:#f6faff;fill-opacity:1;stroke-width:0.118784"
       d="m 244.47096,3.4237815 0.10135,0.0257 0.0794,0.052 0.0794,0.052 -2.1e-4,0.22714 -2e-4,0.22712 -0.0461,0.83286 -0.0461,0.83285 -0.0484,1.05284 -0.0484,1.05285 -0.0389,0.34571 -0.0389,0.34571 0.001,0.42429 0.001,0.42428 0.0744,0.15651 0.0744,0.15651 0.16631,0.1743598 0.16631,0.17436 0.0355,0.0933 0.0355,0.0933 -0.0356,0.88011 -0.0356,0.8801 -0.0222,0.0227 -0.0222,0.0227 -0.0779,0.009 -0.0779,0.009 -0.008,-0.82157 -0.008,-0.82157 -0.0452,-0.0376 -0.0452,-0.0376 -0.0328,0.0203 -0.0328,0.0203 v 0.87473 0.87473 l -0.0831,0.0209 -0.0831,0.0209 -0.0242,-0.0253 -0.0241,-0.0253 -0.0227,-0.88761 -0.0227,-0.88761 -0.0384,-0.0525 -0.0384,-0.0525 -0.0552,0.0212 -0.0552,0.0212 0.0114,0.96605 0.0114,0.96605 -0.0823,0.01 -0.0823,0.01 -0.0194,-0.0724 -0.0194,-0.0724 -0.005,-0.45571 -0.005,-0.45571 -0.0193,-0.37714 -0.0193,-0.37714 h -0.0786 -0.0786 l -0.009,0.14143 -0.009,0.14142 0.0295,0.77 0.0295,0.76999 -0.0631,0.055 -0.0631,0.055 h -0.0557 -0.0557 l -0.0187,-0.19643 -0.0187,-0.19642 -0.032,-0.61286 -0.032,-0.61285 -0.0149,-0.22194 -0.0149,-0.22194 0.0316,-0.11442 0.0316,-0.1143947 0.22984,-0.2503497 0.22984,-0.25034 0.0441,-0.15186 0.0441,-0.15186 -0.002,-0.62857 -0.002,-0.62857 -0.0364,-0.75428 -0.0364,-0.75428 -0.0377,-1.36786 -0.0377,-1.36785 0.0214,-0.0851 0.0214,-0.0851 0.0933,-0.0482 0.0933,-0.0482 0.13412,-0.0135 0.13411,-0.0136 z m -0.25839,0.23614 -0.10787,0.0451 -0.0195,0.0777 -0.0195,0.0777 0.0388,0.0736 0.0388,0.0736 0.0346,0.0231 0.0346,0.0231 0.0864,3.7e-4 0.0864,3.7e-4 0.0629,-0.0629 0.0629,-0.0629 v -0.08 -0.08 l -0.0771,-0.0771 -0.0771,-0.0771 h -0.0182 -0.0181 z"
       id="path486" /><path
       style="fill:#f6faff;fill-opacity:1;stroke-width:0.118784"
       d="m 20.227739,52.214687 0.10343,0.0245 0.066,0.0587 0.066,0.0587 -0.0201,1.13142 -0.02,1.13142 -0.0321,0.67571 -0.0321,0.67571 -0.0453,0.53428 -0.0453,0.53428 -0.0196,0.28285 -0.0196,0.28286 0.0358,0.21881 0.0358,0.21881 0.0831,0.15278 0.0832,0.15277 0.18094,0.15675 0.18094,0.156749 0.0688,0.11134 0.0688,0.11133 -0.0187,0.41318 -0.0187,0.41317 -0.0663,0.63947 -0.0663,0.63946 -0.0281,0.0739 -0.0281,0.0739 -0.0863,0.0567 -0.0863,0.0566 -0.59074,0.0103 -0.59075,0.0103 -0.0912,-0.0912 -0.0912,-0.0912 -0.0207,-0.21765 -0.0207,-0.21765 -0.0606,-0.56571 -0.0606,-0.56571 -0.0205,-0.27125 -0.0205,-0.27125 0.0218,-0.087 0.0218,-0.087 0.28192,-0.291929 0.28192,-0.29194 0.0856,-0.18268 0.0856,-0.18268 -5.9e-4,-1.27285 -5.9e-4,-1.27284 -0.0695,-0.95857 -0.0696,-0.95856 -0.0363,-0.49628 -0.0363,-0.49628 0.0709,-0.0755 0.0709,-0.0755 0.15489,-0.0332 0.15489,-0.0332 0.0534,0.003 0.0535,0.003 z m -0.36271,0.22958 -0.0707,0.0647 v 0.0946 0.0946 l 0.0683,0.0727 0.0683,0.0727 h 0.0862 0.0862 l 0.0509,-0.0195 0.0509,-0.0195 0.0466,-0.0902 0.0466,-0.0902 -0.0205,-0.0818 -0.0205,-0.0818 -0.0979,-0.0595 -0.0979,-0.0595 -0.063,0.019 -0.063,0.019 z"
       id="path485" /><path
       style="fill:#f6faff;fill-opacity:1;stroke-width:0.118784"
       d="m 220.69668,11.813836 -0.43999,-0.02292 -0.33,-0.02025 -0.32999,-0.02025 -0.21994,-0.03165 -0.21995,-0.03165 -0.0725,-0.04748 -0.0725,-0.04748 -0.0193,-0.0504 -0.0194,-0.0504 0.0546,-1.055614 0.0546,-1.0556136 0.045,-0.518567 0.045,-0.518567 0.086,-0.439996 0.086,-0.439997 -0.002,-0.675708 -0.002,-0.6757083 -0.0657,-0.337556 -0.0658,-0.337555 -0.081,-0.176953 -0.081,-0.176952 v -0.04106 -0.04106 l 0.0768,-0.06037 0.0768,-0.06037 0.24646,-0.08146 0.24646,-0.08146 0.37607,-0.02961 0.37607,-0.02961 0.42429,0.0086 0.42428,0.0086 0.14142,0.03739 0.14143,0.03739 0.1268,0.07336 0.12679,0.07335 0.14556,0.155615 0.14556,0.155616 0.0787,0.155314 0.0787,0.155315 0.20751,0.134202 0.20751,0.134202 0.19571,0.02831 0.19571,0.02831 0.22692,6.29e-4 0.22691,6.29e-4 0.0674,0.09112 0.0674,0.09112 0.11428,0.04803 0.11429,0.04803 0.0907,0.01968 0.0908,0.01968 0.18601,0.163312 0.18602,0.1633133 0.14585,0.150329 0.14584,0.150329 0.13493,0.179668 0.13493,0.179668 0.10888,0.219998 0.10888,0.219998 0.0522,0.18857 0.0522,0.18857 0.0161,0.391952 0.0161,0.391953 -0.0397,0.26664 -0.0397,0.26664 -0.11494,0.2214 -0.11493,0.2214 -0.16347,0.2542 -0.16347,0.2542006 -0.0649,0.05876 -0.0649,0.05876 -0.0532,-0.03347 -0.0532,-0.03347 -0.0191,-1.0023426 -0.0191,-1.002343 -0.0675,-0.249323 -0.0675,-0.249323 -0.0996,-0.216076 -0.0996,-0.216076 -0.0912,-0.07674 -0.0912,-0.07674 h -0.18438 -0.18437 l -0.0489,0.06985 -0.0489,0.06985 1.1e-4,0.220863 1e-4,0.220862 0.0448,0.26714 0.0448,0.267141 0.0336,1.02142 0.0336,1.0214196 0.0165,0.487139 0.0165,0.487138 -0.0644,0.104259 -0.0644,0.104258 -0.16417,0.0743 -0.16418,0.0743 -0.25034,0.05097 -0.25035,0.05097 -0.39393,0.02884 -0.39394,0.02884 -0.39285,-0.0043 -0.39286,-0.0043 z"
       id="path484" /><path
       style="fill:#f6faff;fill-opacity:1;stroke-width:0.118784"
       d="m 126.97901,49.67535 -0.0446,-0.07071 -0.0182,-0.06286 -0.0182,-0.06286 -0.0486,-0.326082 -0.0486,-0.326083 -0.0308,-0.457607 -0.0308,-0.457607 0.0323,-0.347729 0.0323,-0.347729 0.0467,-0.267141 0.0467,-0.267141 0.0199,-0.272692 0.0199,-0.272692 -0.0384,-0.195195 -0.0384,-0.195195 -0.0284,-0.05068 -0.0284,-0.05068 -0.14385,-0.329997 -0.14386,-0.329997 -0.0415,-0.09428 -0.0415,-0.09428 -0.0643,-0.204284 -0.0643,-0.204284 -0.0656,-0.258088 -0.0656,-0.258089 -0.0755,-0.637618 -0.0755,-0.637617 -0.0221,-0.305801 -0.0221,-0.3058 0.0901,-0.03453 0.0901,-0.03453 0.94962,0.01032 0.94961,0.01032 0.0472,0.04719 0.0472,0.04719 -0.0309,0.487092 -0.0309,0.487089 -0.0638,0.467453 -0.0638,0.467453 -0.062,0.302541 -0.062,0.30254 -0.0768,0.251426 -0.0767,0.251427 -0.18183,0.345711 -0.18184,0.345711 0.002,0.392854 0.002,0.392854 0.0755,0.45571 0.0755,0.455711 0.001,0.848564 10e-4,0.848564 -0.0561,0.238807 -0.0561,0.238807 -0.063,0.06762 -0.063,0.06762 h -0.10805 -0.10805 z m 0.2331,-0.198102 0.0405,-0.04882 v -0.132029 -0.132031 l -0.0378,-0.07058 -0.0378,-0.07058 h -0.0603 -0.0603 l -0.0327,0.117856 -0.0327,0.117856 -1.3e-4,0.02458 -1.1e-4,0.02458 0.0455,0.108989 0.0455,0.10899 h 0.0449 0.0449 z m 0.28077,-4.806218 0.0687,-0.06222 0.0436,-0.104351 0.0436,-0.104353 0.0467,-0.226283 0.0467,-0.226283 0.0643,-0.60678 0.0643,-0.606779 v -0.214732 -0.214732 l -0.055,-0.06743 -0.055,-0.06743 -0.68571,-0.01025 -0.68571,-0.01025 -0.0525,0.0802 -0.0525,0.0802 -0.0111,0.221848 -0.0111,0.22185 0.0686,0.471424 0.0686,0.471425 0.0781,0.392826 0.0781,0.392825 0.063,0.101976 0.063,0.101975 0.048,0.02685 0.048,0.02684 0.32343,-0.0031 0.32343,-0.0031 z"
       id="path483" /><path
       style="fill:#f6faff;fill-opacity:1;stroke-width:0.118784"
       d="m 265.78643,18.417043 -0.15714,-0.01049 -0.1878,-0.03461 -0.18779,-0.03461 -0.1199,-0.06117 -0.1199,-0.06117 -0.0302,-0.07933 -0.0302,-0.07933 3.5e-4,-0.477236 3.6e-4,-0.477235 0.0614,-1.124768 0.0614,-1.124768 0.0179,-0.029 0.0179,-0.02901 0.1089,-0.02043 0.10889,-0.02043 v -0.0226 -0.02261 l -0.0598,-0.327465 -0.0598,-0.327464 -0.0356,-0.09141 -0.0356,-0.09141 -0.24866,-0.254754 -0.24866,-0.254754 -0.0789,-0.172401 -0.0789,-0.1724 -0.0561,-0.204284 -0.0561,-0.204284 -2.4e-4,-0.377978 -2.3e-4,-0.377979 0.0804,-0.156303 0.0804,-0.156302 0.10493,-0.07071 0.10493,-0.07071 h 0.11044 0.11045 l 0.13575,0.07956 0.13576,0.07956 0.0284,0.05401 0.0284,0.05401 0.0214,0.172856 0.0214,0.172855 0.0479,0.17191 0.0479,0.17191 0.0642,0.126659 0.0642,0.126659 0.0901,0.114522 0.0901,0.114521 -2e-5,0.23119 -2e-5,0.23119 -0.0967,0.204284 -0.0967,0.204283 -0.0168,0.141656 -0.0168,0.141657 0.0663,0.320097 0.0663,0.320098 v 0.01753 0.01753 h 0.31428 0.31429 l 0.004,-0.03928 0.004,-0.03929 -0.002,-0.01812 -0.002,-0.01812 -0.0325,-0.469017 -0.0325,-0.469017 -0.0458,-0.167895 -0.0458,-0.167896 -0.10422,-0.172354 -0.10423,-0.172354 -0.16722,-0.219769 -0.16722,-0.21977 -0.076,-0.20205 -0.0761,-0.202049 -0.0337,-0.216982 -0.0337,-0.216982 0.0359,-0.197802 0.0359,-0.197802 0.0576,-0.111707 0.0576,-0.111709 0.1049,-0.100214 0.1049,-0.100214 0.0885,-0.03334 0.0885,-0.03334 h 0.15666 0.15666 l 0.0849,0.04434 0.0849,0.04434 0.0844,0.08923 0.0844,0.08923 0.0932,0.18857 0.0932,0.18857 0.0539,0.185698 0.0539,0.185699 -0.0147,0.254298 -0.0146,0.254297 -0.15264,0.439997 -0.15264,0.439996 7.4e-4,0.298569 7.4e-4,0.298569 0.0879,0.447853 0.0879,0.447853 h 0.23224 0.23224 l -7.4e-4,-0.08643 -7.4e-4,-0.08643 -0.0455,-0.511711 -0.0456,-0.511712 -0.0216,-0.163997 -0.0216,-0.163997 -0.10115,-0.09429 -0.10116,-0.09428 -0.0531,-0.04251 -0.0531,-0.04251 0.0201,-0.05177 0.0201,-0.05177 0.073,-0.251426 0.073,-0.251427 0.0222,-0.207065 0.0222,-0.207064 -0.0511,-0.201503 -0.0511,-0.201504 -0.11569,-0.235712 -0.11569,-0.235714 -0.0105,-0.01965 -0.0105,-0.01965 0.17323,-0.114977 0.17322,-0.114976 0.20594,-0.07752 0.20595,-0.07752 h 0.0433 0.0434 l 0.0343,0.09837 0.0343,0.09837 0.0314,0.27091 0.0314,0.270915 0.0631,0.521273 0.0631,0.521273 v 0.09359 0.09359 l -0.14929,0.21799 -0.14928,0.21799 0.006,0.298569 0.006,0.298568 0.089,0.549996 0.089,0.549995 h 0.34501 0.345 l 0.0251,-0.329997 0.0251,-0.329997 -0.009,-0.392854 -0.009,-0.392854 -0.0904,-0.157141 -0.0904,-0.157142 -0.16912,-0.223823 -0.16913,-0.223825 -0.045,-0.341885 -0.0451,-0.341886 -0.0501,-0.479587 -0.0501,-0.47959 -0.0642,-0.207807 -0.0642,-0.207807 0.0206,-0.0826 0.0206,-0.0826 0.0654,-0.106135 0.0654,-0.106135 0.13907,-0.06151 0.13907,-0.06152 0.63879,-0.0052 0.63878,-0.0052 0.0892,0.06614 0.0892,0.06614 0.0628,0.106712 0.0629,0.106717 v 0.83285 0.83285 l -0.0717,0.155607 -0.0717,0.155607 -0.15855,0.247162 -0.15855,0.247162 -0.12945,0.269795 -0.12946,0.269795 -0.0233,0.333142 -0.0232,0.333141 -0.002,0.36635 -0.002,0.366349 0.30209,0.02265 0.3021,0.02265 0.0249,-0.04038 0.0249,-0.04038 0.0218,-0.275594 0.0218,-0.275594 -0.0217,-0.128445 -0.0217,-0.128444 -0.10942,-0.130969 -0.10942,-0.130969 -0.0617,-0.121 -0.0617,-0.121001 -0.0279,-0.148324 -0.0279,-0.148324 0.10254,-0.188569 0.10254,-0.18857 0.17671,-0.298582 0.17671,-0.298581 0.0366,-0.2357 0.0366,-0.2357 0.0123,-0.04312 0.0123,-0.04312 0.10001,0.02 0.10002,0.02 0.0738,0.04839 0.0739,0.04839 0.0592,0.09735 0.0592,0.09735 0.0688,0.254514 0.0688,0.254514 -0.0163,0.298569 -0.0162,0.298569 -0.0992,0.326686 -0.0991,0.326686 -0.15188,0.201718 -0.15188,0.201717 -0.0226,0.331984 -0.0226,0.331983 0.0426,0.02698 0.0426,0.02698 0.28442,4.81e-4 0.28441,4.81e-4 0.0377,-0.260915 0.0377,-0.260914 -3.7e-4,-0.155511 -3.7e-4,-0.15551 -0.0763,-0.125714 -0.0763,-0.125713 -0.0511,-0.08917 -0.0511,-0.08917 0.0622,-0.209395 0.0622,-0.209395 0.0343,-0.166546 0.0343,-0.166546 -3.7e-4,-0.163451 -3.7e-4,-0.163452 -0.0447,-0.18857 -0.0446,-0.18857 0.0736,-0.125713 0.0736,-0.125713 0.0737,-0.06862 0.0737,-0.06862 0.0885,-0.03352 0.0885,-0.03352 h 0.11902 0.11902 l 0.10679,0.07076 0.10679,0.07076 0.0746,0.150408 0.0746,0.150407 0.0339,0.234915 0.0338,0.234914 -0.0369,0.290341 -0.0369,0.290342 -0.0469,0.157141 -0.0469,0.157141 -0.0947,0.141428 -0.0947,0.141427 -0.15538,0.19503 -0.15538,0.19503 -0.0178,0.166396 -0.0178,0.166395 -0.008,0.186806 -0.008,0.186805 0.10951,0.02287 0.1095,0.02287 0.0712,0.08279 0.0712,0.08279 7.4e-4,0.100389 7.4e-4,0.10039 0.0589,1.421324 0.0588,1.421325 -0.0325,0.128152 -0.0325,0.128151 -0.0979,0.07385 -0.0979,0.07385 -0.12571,0.04108 -0.12572,0.04108 -2.35712,0.0041 -2.35712,0.0041 z m 2.82982,-6.821337 0.0228,-0.304774 -0.0209,-0.300219 -0.0209,-0.300224 -0.0187,-0.117856 -0.0187,-0.117855 h -0.0552 -0.0552 l -0.0142,0.07463 -0.0143,0.07463 0.0247,0.57751 0.0247,0.577508 0.021,0.07071 0.021,0.07071 h 0.0405 0.0405 z m -0.40092,-0.102587 0.009,-0.355096 -0.0303,-0.218998 -0.0303,-0.219003 -0.0204,-0.02043 -0.0204,-0.02043 -0.0446,0.06096 -0.0446,0.06096 v 0.274577 0.274572 l 0.0341,0.245352 0.0341,0.245351 0.0159,0.02572 0.0159,0.02572 0.0364,-0.01208 0.0364,-0.01208 z m 0.80908,0.144187 0.0211,-0.168891 -0.0351,-0.385049 -0.0351,-0.38505 -0.017,-0.0275 -0.017,-0.0275 h -0.0303 -0.0303 l -0.0318,0.08357 -0.0318,0.08357 0.031,0.466902 0.031,0.466901 0.0191,0.03095 0.0191,0.03095 h 0.043 0.043 z"
       id="path482" /><path
       style="fill:#f6faff;fill-opacity:1;stroke-width:0.118784"
       d="m 167.0967,34.950837 0.1146,0.02283 0.19786,0.147025 0.19787,0.147025 0.50697,0.537091 0.50696,0.537092 0.2202,0.33225 0.22019,0.33225 0.26709,0.288108 0.26709,0.288108 0.44433,0.303127 0.44433,0.303128 0.21551,0.09165 0.21551,0.09165 0.24241,0.143135 0.24241,0.143136 0.39976,0.329833 0.39975,0.329833 0.37584,0.354607 0.37583,0.354605 0.0263,0.0842 0.0262,0.0842 -0.0512,0.08318 -0.0512,0.08317 -0.27277,0.283397 -0.27276,0.28339 -0.25121,0.187533 -0.25124,0.187519 -0.0864,0.02697 -0.0864,0.02697 -0.25156,-0.277442 -0.25155,-0.27744 -0.28912,-0.399196 -0.28913,-0.399195 -0.16277,-0.287153 -0.16278,-0.287151 -0.11091,-0.275301 -0.11091,-0.275309 -0.083,-0.18083 -0.083,-0.18083 -0.0288,-0.102372 -0.0288,-0.102372 -0.14041,-0.149511 -0.14042,-0.149512 -0.20664,-0.171227 -0.20664,-0.171228 -0.33806,-0.248391 -0.33799,-0.24846 -0.31282,-0.282709 -0.31282,-0.28271 -0.24445,-0.287838 -0.24445,-0.287839 -0.22032,-0.300133 -0.22032,-0.300135 -0.0498,-0.126691 -0.0498,-0.126692 0.0206,-0.06129 0.0206,-0.06128 0.0686,-0.06457 0.0686,-0.06457 z m -0.0322,0.399047 -0.002,0.06982 0.0631,0.06702 0.0631,0.06702 0.0855,0.0026 0.0855,0.0026 0.0337,-0.05377 0.0337,-0.05377 -0.0273,-0.08055 -0.0274,-0.08048 -0.0265,-0.02816 -0.0265,-0.02816 -0.0835,-0.01734 -0.0835,-0.01734 -0.0428,0.0403 -0.0428,0.0403 z m 3.74606,4.044102 0.042,0.0601 0.0472,-0.0097 0.0472,-0.0097 0.006,-0.052 0.006,-0.052 -0.0254,-0.02695 -0.0254,-0.02695 -0.0539,-0.0016 -0.0539,-0.0016 -0.0164,0.03014 -0.0164,0.03014 z m 0.20683,-0.214774 0.0191,0.04673 0.0455,0.02192 0.0455,0.02192 0.0326,-0.03071 0.0326,-0.03071 -0.0191,-0.04673 -0.0191,-0.04673 -0.0455,-0.02192 -0.0455,-0.02192 -0.0326,0.03071 -0.0326,0.03071 z m 0.32311,0.30371 0.0628,0.06675 0.0318,-0.02995 0.0318,-0.02995 -0.0119,-0.06075 -0.0119,-0.06075 -0.0656,-0.0081 -0.0656,-0.0081 -0.0173,0.0321 -0.0173,0.0321 z m -0.30014,0.20229 0.0151,0.06023 0.06,0.02014 0.06,0.02014 0.0213,-0.02002 0.0213,-0.02001 -0.0192,-0.07102 -0.0192,-0.07102 -0.0582,-0.0072 -0.0582,-0.0072 -0.0189,0.01782 -0.0189,0.01782 z m 0.68595,-0.282864 0.049,0.06667 0.0462,-0.01894 0.0461,-0.01887 -0.004,-0.05675 -0.004,-0.05675 -0.0606,-0.03377 -0.0606,-0.03377 -0.0313,0.04306 -0.0313,0.04306 z m -0.78017,0.664029 0.0191,0.04673 0.0455,0.02192 0.0455,0.02192 0.0433,-0.04078 0.0433,-0.04078 -0.0503,-0.0534 -0.0503,-0.05339 -0.0296,-9.29e-4 -0.0296,-9.29e-4 -0.028,0.02639 -0.028,0.02639 z m 0.65424,-0.313732 0.0191,0.04673 0.0455,0.02192 0.0455,0.02192 0.0414,-0.039 0.0414,-0.039 -0.0167,-0.03827 -0.0166,-0.03827 -0.0583,-0.02065 -0.0583,-0.02065 -0.0311,0.02927 -0.0311,0.02927 z m -0.22258,0.274267 0.0533,0.05658 0.0438,-0.02782 0.0439,-0.02789 -0.0198,-0.04826 -0.0197,-0.04827 -0.047,-0.02263 -0.047,-0.02263 -0.0305,0.04216 -0.0304,0.04209 z m 0.58815,-0.338224 0.0284,0.05921 0.036,0.0097 0.036,0.0097 0.0337,-0.03174 0.0337,-0.03174 -0.0191,-0.04673 -0.0191,-0.04673 -0.0455,-0.02192 -0.0455,-0.02192 -0.0335,0.03153 -0.0335,0.03153 z m -0.71082,0.726794 0.0503,0.06802 0.0449,-0.04222 0.0448,-0.04222 -0.0208,-0.05066 -0.0208,-0.05066 -0.057,-0.007 -0.057,-0.007 -0.0174,0.03197 -0.0174,0.03197 z m 0.64205,-0.326527 0.041,0.05828 0.051,-0.02092 0.051,-0.02085 0.001,-0.04583 0.001,-0.04583 -0.0621,-0.03464 -0.0621,-0.03464 -0.0312,0.04313 -0.0312,0.04313 z m -0.26222,0.256997 0.0533,0.05658 0.0474,-0.03004 0.0474,-0.03004 -0.0201,-0.04904 -0.0201,-0.04904 -0.0478,-0.023 -0.0477,-0.023 -0.0328,0.04549 -0.0328,0.04549 z m -0.10093,0.397149 0.0533,0.05658 0.0439,-0.02782 0.0438,-0.02782 -0.0198,-0.04827 -0.0198,-0.04826 -0.047,-0.02264 -0.047,-0.02263 -0.0304,0.04209 -0.0304,0.04209 z m 0.7996,-0.709539 0.0533,0.05658 0.045,-0.02851 0.045,-0.02851 -0.0293,-0.06085 -0.0293,-0.06085 -0.038,-0.01017 -0.038,-0.01017 -0.0311,0.04301 -0.0311,0.04301 z m -0.087,0.366069 0.0628,0.06675 0.0318,-0.02995 0.0318,-0.02995 -0.0119,-0.06075 -0.0119,-0.06075 -0.0656,-0.0081 -0.0656,-0.0081 -0.0173,0.0321 -0.0173,0.0321 z m -0.3462,0.270107 0.0119,0.06094 0.0727,0.0022 0.0728,0.0022 0.0105,-0.03907 0.0105,-0.03907 -0.049,-0.05205 -0.049,-0.05205 -0.0305,-9.3e-4 -0.0305,-9.29e-4 -0.0155,0.02888 -0.0155,0.02888 z"
       id="path481" /><path
       style="fill:#f6faff;fill-opacity:1;stroke-width:0.118784"
       d="m 109.52936,14.913822 -0.0943,-0.04162 -0.0538,-0.06044 -0.0538,-0.06044 -0.0483,-0.115697 -0.0483,-0.115696 V 14.3945 14.269077 l 0.0802,-0.669151 0.0802,-0.669151 0.003,-0.204284 0.003,-0.204284 -0.0807,-0.157142 -0.0807,-0.157141 -0.0893,-0.08477 -0.0894,-0.08477 -0.32552,-0.141296 -0.32553,-0.141295 -0.17232,-0.103928 -0.17233,-0.103929 -0.20193,-0.166099 -0.20193,-0.166099 -0.19329,-0.242469 -0.19329,-0.242468 -0.15006,-0.314284 -0.15006,-0.314283 -0.054,-0.2199981 -0.054,-0.219998 -0.0783,-0.09428 -0.0783,-0.09428 -0.0424,-0.101132 -0.0424,-0.101133 v -0.143446 -0.143446 l 0.0481,-0.115155 0.0481,-0.115155 0.0766,-0.100367 0.0765,-0.100367 0.10606,-0.316644 0.10606,-0.3166436 0.15427,-0.257154 0.15427,-0.257155 0.23571,-0.252198 0.23571,-0.252199 0.2749,-0.180855 0.27491,-0.180854 0.25192,-0.09715 0.25192,-0.09715 0.19602,-0.04468 0.19603,-0.04468 0.22,-0.0208 0.22,-0.0208 0.31428,0.03762 0.31429,0.03762 0.25142,0.07921 0.25143,0.07921 0.15714,0.07885 0.15714,0.07884 0.20855,0.139258 0.20854,0.139257 0.21915,0.226086 0.21916,0.226087 0.1598,0.244872 0.1598,0.244871 0.0936,0.242774 0.0936,0.2427736 0.0223,0.09378 0.0223,0.09378 0.0759,0.101943 0.0759,0.101942 0.0607,0.13377 0.0607,0.13377 5.6e-4,0.172855 5.5e-4,0.172856 -0.066,0.109999 -0.066,0.109999 -0.0543,0.06286 -0.0543,0.06286 -0.0685,0.26288 -0.0684,0.2628801 -0.12798,0.253798 -0.12797,0.253799 -0.0885,0.127602 -0.0885,0.127602 -0.1733,0.190504 -0.17329,0.190505 -0.16773,0.129366 -0.16772,0.129367 -0.26714,0.141365 -0.26714,0.141364 -0.22,0.06957 -0.21999,0.06957 -0.11,0.05635 -0.11,0.05635 -0.0861,0.08171 -0.0861,0.0817 -0.0553,0.101136 -0.0553,0.101137 0.004,0.298568 0.004,0.298569 0.0663,0.502853 0.0663,0.502853 -6e-5,0.282855 -6e-5,0.282854 -0.0613,0.100617 -0.0614,0.100616 -0.0941,0.04867 -0.0941,0.04867 -0.0566,-0.0012 -0.0566,-0.0012 z m 0.23495,-0.379284 0.0384,-0.04622 0.002,-0.103062 0.002,-0.103062 -0.0233,-0.180732 -0.0233,-0.180732 -0.0471,-0.04712 -0.0471,-0.04712 -0.0213,4.81e-4 -0.0213,4.81e-4 -0.0389,0.02472 -0.0389,0.02472 -0.0318,0.16766 -0.0318,0.167662 v 0.134892 0.134893 l 0.0494,0.04939 0.0494,0.04939 h 0.0725 0.0725 z"
       id="path480" /><path
       style="fill:#f6faff;fill-opacity:1;stroke-width:0.118784"
       d="m 57.66554,22.132267 -0.02958,-0.108007 0.01586,-0.0896 0.01594,-0.08953 0.09145,-0.15421 0.09145,-0.15421 0.218457,-0.178612 0.218455,-0.178611 0.347309,-0.318709 0.34731,-0.31871 0.142332,-0.201355 0.142332,-0.201354 0.195028,-0.414453 0.195029,-0.414454 0.100632,-0.106795 0.100631,-0.106794 0.02285,0.02153 0.02285,0.02153 0.106936,-0.113485 0.106936,-0.113485 -0.07361,-0.116645 -0.07361,-0.116646 -0.05697,-0.09993 -0.05697,-0.09994 -0.08035,-0.179044 -0.08036,-0.179044 -0.05142,-0.18521 -0.05142,-0.18521 -0.03223,-0.240758 -0.03223,-0.240759 0.0096,-0.258324 0.0096,-0.258317 0.03543,-0.188743 0.03543,-0.188743 0.07572,-0.224713 0.07572,-0.224713 0.146527,-0.264279 0.146599,-0.26421 0.183944,-0.223205 0.183944,-0.223206 0.250978,-0.195335 0.250978,-0.195336 0.188786,-0.102796 0.188786,-0.102797 0.277298,-0.09467 0.277305,-0.09466 0.227894,-0.0366 0.227885,-0.03661 0.261463,0.0023 0.261455,0.0023 0.171621,0.02647 0.171621,0.02647 0.30563,0.09902 0.305638,0.09902 0.250587,0.143752 0.250594,0.143758 0.319483,0.32545 0.319484,0.325449 0.09455,0.151713 0.09455,0.151705 0.05988,0.119777 0.05987,0.11977 0.101023,0.271504 0.101022,0.271504 0.03665,0.228186 0.03665,0.228193 -0.0036,0.239526 -0.0036,0.239524 -0.04972,0.281564 -0.04972,0.281563 -0.08693,0.230196 -0.08693,0.230195 -0.09102,0.167028 -0.09102,0.167028 -0.181906,0.238831 -0.181904,0.23883 -0.142857,0.124485 -0.142858,0.124484 -0.141251,0.104407 -0.14125,0.104406 -0.187622,0.103894 -0.187622,0.103894 -0.247414,0.09073 -0.247414,0.09074 -0.231168,0.04127 -0.231175,0.04126 -0.217981,0.0065 -0.217987,0.0065 -0.233213,-0.02747 -0.233212,-0.02747 -0.260763,-0.07762 -0.260764,-0.07761 -0.240456,-0.123707 -0.240463,-0.123714 -0.117535,0.110151 -0.117536,0.110153 0.02409,0.0227 0.02409,0.0227 -0.106655,0.113186 -0.106654,0.113186 -0.232791,0.129957 -0.23279,0.129956 -0.19578,0.141569 -0.195779,0.141568 -0.252993,0.268486 -0.252993,0.268486 -0.198697,0.284503 -0.198697,0.284502 -0.234177,0.254351 -0.234176,0.254349 -0.142176,0.04867 -0.142176,0.04867 -0.100023,-0.02859 -0.100022,-0.02859 -0.04111,-0.0389 -0.04111,-0.0389 z m 0.413624,-0.05663 0.0533,-0.0016 0.178459,-0.189389 0.178457,-0.189386 0.04982,-0.126657 0.04982,-0.126657 -0.0444,-0.04183 -0.04447,-0.0419 -0.107859,0.04812 -0.107859,0.04812 -0.190363,0.202021 -0.190361,0.202019 0.0016,0.0533 0.0016,0.0533 0.05946,0.05603 0.05946,0.05603 z"
       id="path479" /><path
       style="fill:#f6faff;fill-opacity:1;stroke-width:0.118784"
       d="m 79.686101,44.437545 -2.13712,-0.0173 -0.0372,-0.02412 -0.0372,-0.02412 -0.0352,-0.169571 -0.0352,-0.169572 -0.15558,-0.03732 -0.15558,-0.03732 -0.0137,-0.02224 -0.0137,-0.02224 -0.21402,0.02418 -0.21401,0.02418 -0.26714,0.01918 -0.26714,0.01918 -0.18857,0.0077 -0.18857,0.0077 -0.14938,-0.04263 -0.14938,-0.04263 -0.0478,-0.0729 -0.0478,-0.0729 0.0189,-0.04928 0.0189,-0.04928 0.14681,-0.07041 0.1468,-0.07041 0.18123,-0.01427 0.18124,-0.01427 0.29019,0.03509 0.29019,0.03509 0.18456,0.0165 0.18457,0.0165 0.0983,-0.03114 0.0983,-0.03113 0.11666,-0.01785 0.11665,-0.01785 0.0202,-0.107779 0.0202,-0.107777 0.0738,-0.07959 0.0738,-0.07959 1.12506,0.0037 1.12506,0.0037 1.56637,0.01984 1.56637,0.01984 0.059,0.07296 0.059,0.07296 0.02,0.106388 0.0199,0.106389 0.11235,0.03708 0.11235,0.03708 0.39512,-0.02785 0.39512,-0.02785 0.31428,5.55e-4 0.31429,5.56e-4 0.10214,0.05526 0.10214,0.05526 v 0.106947 0.106947 l -0.0486,0.04856 -0.0486,0.04856 -0.12936,0.03483 -0.12936,0.03483 -0.52136,-0.02612 -0.52137,-0.02612 -0.12571,0.0064 -0.12571,0.0064 -0.10127,0.01843 -0.10127,0.01843 -0.0327,0.121478 -0.0327,0.121477 -0.0596,0.07369 -0.0596,0.07369 -0.56069,0.0016 -0.5607,0.0016 z"
       id="path478" /><path
       style="fill:#f6faff;fill-opacity:1;stroke-width:0.118784"
       d="m 212.81519,53.347651 -0.055,-0.03203 V 53.1314 52.947184 l -0.19642,-0.01872 -0.19643,-0.01872 -0.61285,-0.0234 -0.61285,-0.0234 -0.0707,-0.04035 -0.0707,-0.04035 V 52.645774 52.5093 l 0.0489,-0.04058 0.0489,-0.04057 0.24656,-0.01427 0.24655,-0.01427 0.29384,0.03448 0.29383,0.03448 0.275,-0.01958 0.275,-0.01958 v -0.133279 -0.133277 l 0.055,-0.06754 0.055,-0.06754 2.60748,0.0017 2.60749,0.0017 0.0244,0.02444 0.0244,0.02444 0.0204,0.195589 0.0204,0.195591 0.0662,0.01365 0.0662,0.01364 0.12571,0.0195 0.12571,0.0195 0.55,0.02475 0.54999,0.02475 0.0629,0.02491 0.0629,0.02491 0.055,0.04724 0.055,0.04724 v 0.104404 0.104404 l -0.0707,0.04542 -0.0707,0.04542 -0.14143,0.02039 -0.14143,0.02039 -0.38019,-0.04978 -0.3802,-0.04978 -0.26408,0.01236 -0.26409,0.01236 -0.0163,0.153046 -0.0163,0.153045 -0.0249,0.03929 -0.0249,0.03928 -2.59884,-9.62e-4 -2.59884,-9.62e-4 z"
       id="path477" /><path
       style="fill:#f6faff;fill-opacity:1;stroke-width:0.118784"
       d="m 99.978428,33.542861 0.01958,-0.132409 0.08527,-0.188585 0.0853,-0.188586 0.10318,-0.144416 0.10319,-0.144416 1.05609,-0.935463 1.05609,-0.935463 -0.006,-0.07522 -0.006,-0.07522 -0.0685,-0.265947 -0.0685,-0.265947 0.0236,-0.045 0.0236,-0.045 0.0299,0.0019 0.0299,0.0019 0.0645,0.160878 0.0645,0.160879 0.0241,0.216714 0.0241,0.216707 0.0417,0.01273 0.0417,0.01273 0.0846,-0.09721 0.0846,-0.09721 0.0627,-0.01464 0.0627,-0.01464 -3.4e-4,-0.155068 -3.4e-4,-0.155061 0.0592,-0.209916 0.0592,-0.209923 0.14488,-0.19853 0.14488,-0.198531 0.19881,-0.126643 0.19882,-0.126642 0.20357,-0.04799 0.20357,-0.04799 0.21117,0.0137 0.21118,0.01371 0.18033,0.07247 0.18034,0.07247 0.15443,0.123627 0.15443,0.12362 0.10987,0.176371 0.10987,0.176363 0.0492,0.189053 0.0492,0.189052 -0.0135,0.213879 -0.0135,0.213878 -0.0762,0.189835 -0.0762,0.189834 -0.12957,0.164425 -0.12957,0.164425 -0.17795,0.11082 -0.17794,0.11082 -0.18183,0.05471 -0.18182,0.0547 -0.23909,-0.0087 -0.23907,-0.0086 -0.20668,-0.0884 -0.20668,-0.0884 -0.16277,-0.154793 -0.16277,-0.154793 -0.0826,0.07264 -0.0826,0.07264 0.14357,0.177178 0.14357,0.177172 -0.0193,0.01694 -0.0193,0.01694 -0.12999,-0.120274 -0.13,-0.120282 -0.025,-0.0016 -0.025,-0.0016 -0.6305,0.651196 -0.63057,0.65112 -0.33135,0.265705 -0.33134,0.265705 -0.17539,0.109906 -0.17539,0.109904 -0.19072,0.0817 -0.19072,0.0817 -0.15009,-0.0052 -0.1501,-0.0052 -0.0528,-0.06 -0.05277,-0.06 z m 0.556412,-0.03736 0.0431,-0.0067 0.0639,-0.05554 0.0639,-0.05554 -0.009,-0.0848 -0.009,-0.0848 -0.0265,-0.03011 -0.0265,-0.03011 -0.0887,-0.0057 -0.0887,-0.0057 -0.0472,0.04151 -0.0472,0.04151 -0.006,0.09257 -0.006,0.09257 0.0708,0.0488 0.0708,0.0488 z"
       id="path476" /><path
       style="fill:#f6faff;fill-opacity:1;stroke-width:0.118784"
       d="m 155.32721,65.569687 -0.33,-0.02564 -0.23031,-0.04855 -0.23031,-0.04855 -0.17816,-0.08156 -0.17817,-0.08157 -0.0741,-0.0689 -0.0742,-0.0689 -0.0973,-0.141427 -0.0973,-0.141428 -0.0465,-0.04714 -0.0465,-0.04714 -0.14829,-0.227052 -0.14829,-0.227053 -0.0685,-0.197229 -0.0685,-0.19723 -0.0178,-0.339073 -0.0178,-0.339073 -0.26449,-0.124494 -0.26449,-0.124494 h -0.0391 -0.0391 l -0.14808,-0.09391 -0.14809,-0.09391 -0.0349,-0.07654 -0.0349,-0.07654 0.0201,-0.106899 0.0201,-0.106899 0.0926,-0.08869 0.0926,-0.08869 0.18767,0.01961 0.18767,0.01961 0.28708,0.09232 0.28708,0.09232 0.0257,-0.06804 0.0257,-0.06803 -0.0288,-0.055 -0.0288,-0.055 h -0.027 -0.0269 l -0.0177,-0.04617 -0.0177,-0.04617 0.0412,-0.07941 0.0412,-0.07941 0.12244,-0.08425 0.12245,-0.08425 0.18114,-0.121469 0.18115,-0.121469 0.14885,-0.06426 0.14885,-0.06426 0.26714,-0.0577 0.26714,-0.0577 0.25143,-0.02028 0.25143,-0.02028 0.0943,-0.03473 0.0943,-0.03473 0.0136,-0.01078 0.0136,-0.01078 -0.17283,-0.154038 -0.17282,-0.154039 -0.0732,-0.138047 -0.0732,-0.138047 0.0219,-0.116667 0.0219,-0.116666 0.0958,-0.109137 0.0958,-0.109136 0.23516,-0.116225 0.23517,-0.116225 0.18479,-0.01337 0.1848,-0.01337 0.21346,0.05231 0.21347,0.05231 0.14803,0.09214 0.14804,0.09214 0.0555,0.08468 0.0555,0.08468 -0.003,0.118407 -0.003,0.118407 -0.0803,0.137094 -0.0803,0.137095 -0.15906,0.154298 -0.15905,0.154297 0.0232,0.01834 0.0232,0.01834 0.11,0.03683 0.11,0.03683 0.29857,0.03308 0.29857,0.03309 0.16551,0.04752 0.1655,0.04752 0.22735,0.104027 0.22734,0.104027 0.22786,0.147895 0.22786,0.147896 v 0.07448 0.07448 l -0.0195,0.05088 -0.0196,0.05088 -0.0933,0.04825 -0.0933,0.04825 0.0211,0.08409 0.0211,0.08409 0.009,0.0091 0.009,0.0091 0.16909,-0.067 0.16908,-0.06699 0.18857,-0.05947 0.18857,-0.05946 0.14336,-4.07e-4 0.14336,-4.07e-4 0.0722,0.06731 0.0722,0.06731 0.0458,0.109623 0.0458,0.109625 -0.0373,0.09008 -0.0373,0.09008 -0.23565,0.130078 -0.23564,0.130078 -0.22416,0.08598 -0.22417,0.08598 -0.0192,0.326207 -0.0192,0.326208 -0.0363,0.15137 -0.0363,0.15137 -0.0938,0.185838 -0.0938,0.185837 -0.19678,0.244215 -0.19677,0.244217 -0.0723,0.102021 -0.0723,0.10202 -0.13151,0.07622 -0.13152,0.07622 -0.17285,0.04845 -0.17286,0.04845 -0.42428,0.0461 -0.42428,0.04609 -0.39286,0.01473 -0.39285,0.01473 z m 0.71927,-4.556493 h 0.0927 l 0.0497,0.01908 0.0497,0.01908 v 0.04378 0.04378 h 0.0459 0.0459 l 0.15054,-0.160571 0.15055,-0.160571 0.0832,-0.130141 0.0832,-0.130141 0.0197,-0.06633 0.0196,-0.06633 -0.0557,-0.0679 -0.0557,-0.0679 -0.25143,-0.09351 -0.25143,-0.09351 -0.11669,-1.14e-4 -0.11669,-1.14e-4 -0.15119,0.05959 -0.15119,0.05959 -0.15639,0.09189 -0.1564,0.09189 -0.0107,0.05529 -0.0107,0.05529 0.0196,0.07794 0.0196,0.07794 0.1325,0.144524 0.13251,0.144523 0.1245,0.09073 0.12451,0.09073 0.0238,-0.06426 0.0238,-0.06426 z"
       id="path475" /><path
       style="fill:#f6faff;fill-opacity:1;stroke-width:0.118784"
       d="m 35.897297,11.552637 -0.131204,0.04043 -0.190913,0.128741 -0.190918,0.12875 -0.11241,-0.0084 -0.112411,-0.0084 -0.145876,-0.08988 -0.145876,-0.08987 -0.0701,-0.138446 -0.0701,-0.138448 -0.0387,-0.106532 -0.0387,-0.106533 -0.259023,-0.159173 -0.259026,-0.159165 -0.224764,-0.0505 -0.224764,-0.0505 -0.51248,-0.340642 -0.51248,-0.340641 -0.82813,-0.603122 -0.82813,-0.603122 -0.209217,-0.15979 -0.209216,-0.15979 -0.06655,-0.02174 -0.06655,-0.02174 -0.08295,0.01479 -0.083,0.01487 L 29.989645,8.368389 29.69548,8.212993 29.363234,8.677416 29.030993,9.141831 28.570016,9.774 l -0.460974,0.632182 -0.004,0.06625 -0.0041,0.06633 0.04156,0.04827 0.04156,0.04828 -0.03018,0.08124 -0.03018,0.08124 -0.09338,0.163955 -0.09337,0.163947 -0.01708,0.05407 -0.01708,0.05407 0.03875,0.02387 0.03875,0.02387 0.09471,0.134817 0.09471,0.134816 -0.01647,0.127429 -0.01647,0.127438 -0.04658,0.08018 -0.04663,0.08027 -0.09259,0.105304 -0.09259,0.105313 -0.09184,0.06597 -0.09184,0.06596 -0.127356,0.208809 -0.127356,0.208808 -0.08678,0.223388 -0.08678,0.223387 -0.105275,0.267375 -0.10527,0.267366 -0.150068,0.28077 -0.150062,0.280762 -0.0606,0.05909 -0.0606,0.05909 -0.09539,0.02075 -0.09539,0.02075 -0.177935,-0.02071 -0.177935,-0.02071 -0.129873,-0.07884 -0.129873,-0.07884 -0.129537,-0.01086 -0.129538,-0.01086 -0.208103,-0.103547 -0.208103,-0.103547 -0.0027,-0.09693 -0.0027,-0.09693 -0.09265,-0.09843 -0.09265,-0.09843 -0.103171,-0.150012 -0.103172,-0.150012 -0.04532,-0.190786 -0.04532,-0.190786 0.05351,-0.163286 0.05352,-0.163296 0.181533,-0.260961 0.181534,-0.26096 0.321618,-0.364874 0.321619,-0.364873 0.327964,-0.323883 0.32797,-0.323892 0.156576,-0.09972 0.156576,-0.09972 0.08124,0.01552 0.08124,0.01552 0.06004,0.03699 0.06004,0.03699 0.07298,-0.0058 0.07299,-0.0058 0.122559,-0.18482 0.122565,-0.184828 0.06029,-0.03509 0.06029,-0.03509 0.07758,0.02454 0.07758,0.02454 0.049,-0.05227 0.049,-0.05227 0.682062,-0.982529 0.682062,-0.982528 0.09077,-0.114023 0.09077,-0.114032 L 29.205204,7.813751 29.089736,7.718771 28.942954,7.628341 28.79607,7.537841 28.74452,7.299796 28.69297,7.06176 28.576996,7.01474 28.461023,6.96772 28.439693,6.878 l -0.02133,-0.08972 0.02381,-0.03865 0.02381,-0.03865 0.08038,-0.0047 0.08038,-0.0047 0.03113,-0.08911 0.03113,-0.08912 -0.04307,-0.107108 -0.04302,-0.1071943 0.02313,-0.037546 0.02313,-0.037546 0.115465,-0.00767 0.115474,-0.00767 0.151509,-0.245597 0.151513,-0.2456056 0.340626,-0.4915024 0.340631,-0.4915109 0.202992,-0.2413622 0.202987,-0.2413537 0.0637,-0.1034007 0.06371,-0.1034007 -0.0085,-0.1051685 -0.0084,-0.1052536 0.05168,-0.048849 0.05168,-0.048849 0.09139,0.020131 0.09139,0.020131 0.128072,-0.1364023 0.128078,-0.1364108 0.297559,-0.2827014 0.297566,-0.2827093 0.16132,-0.1341471 0.161326,-0.1341555 0.07737,-0.046534 0.07737,-0.046534 0.07684,-0.013733 0.07684,-0.013733 0.139397,0.043364 0.139397,0.043364 0.05522,0.015228 0.05522,0.015228 0.03636,-0.058172 0.03636,-0.058172 0.05083,-0.047969 0.05083,-0.047964 0.138589,0.026305 0.138587,0.026304 0.05773,0.035569 0.05773,0.035569 -0.04771,0.1274886 -0.04771,0.1274887 0.06399,0.05117 0.06399,0.05117 0.09256,-0.1181921 0.09256,-0.118192 0.135248,-0.018742 0.13525,-0.018741 0.250881,0.060839 0.250882,0.06084 0.05989,0.036896 0.05989,0.036896 0.01233,0.051878 0.01233,0.051878 -0.05415,0.087889 -0.05415,0.087889 0.179352,0.083367 0.179352,0.083367 0.575289,0.3544375 0.575287,0.354437 0.250531,0.2224774 0.250531,0.2224775 0.221701,0.2651345 0.221701,0.2651345 0.13076,0.211313 0.130763,0.211304 0.136443,0.2878248 0.136441,0.2878243 0.0978,0.2822435 0.09779,0.2822522 0.08069,0.34857 0.08069,0.34857 0.0117,0.164097 0.0117,0.164096 0.03234,0.01992 0.03234,0.01992 0.120766,0.01908 0.120766,0.01908 0.0686,0.04226 0.0686,0.04226 -0.0088,0.04663 -0.0088,0.04663 -0.09222,0.05547 -0.09221,0.05547 -0.0087,0.01405 -0.0087,0.01405 0.08245,0.03095 0.08245,0.03095 0.02743,0.06846 0.02743,0.06846 -0.06745,0.195224 -0.06745,0.195225 -0.579375,0.974299 -0.579375,0.9742996 -0.301119,0.35669 -0.301115,0.356681 0.01199,0.104642 0.01199,0.104643 -0.02193,0.03559 -0.02193,0.03559 z m 0.42044,-4.35277 0.0264,-0.102491 L 36.286217,6.900625 36.2283,6.703883 36.109874,6.549053 35.991447,6.3942238 35.643198,6.0884029 35.294948,5.7825815 34.861886,5.3171289 34.428829,4.8516683 34.305184,4.7348501 34.181539,4.6180324 34.001717,4.5084179 33.821896,4.398804 l -0.08461,-0.00386 -0.08461,-0.00386 -0.148447,0.067576 -0.148448,0.067576 -0.05224,0.084798 -0.05224,0.084798 -0.01592,0.1906164 -0.01592,0.190608 0.09739,0.2472855 0.09739,0.2472855 0.190669,0.303733 0.190669,0.303733 0.200951,0.2585637 0.200951,0.258564 0.263433,0.275882 0.263432,0.275881 0.290229,0.198778 0.290227,0.198778 0.148646,0.04754 0.148647,0.04754 0.139776,-0.0039 0.139774,-0.0039 0.09901,-0.05913 0.09901,-0.05912 0.06927,-0.06808 0.06927,-0.06808 0.03665,-0.08818 0.03665,-0.08818 z m -9.75165,6.907457 -0.112063,0.06605 -0.100598,0.01155 -0.100598,0.01155 -0.227897,-0.07886 -0.227898,-0.07886 -0.01537,0.02495 -0.01537,0.02494 0.0442,0.03311 0.0442,0.03311 0.0968,0.05259 0.0968,0.05259 0.154776,0.03816 0.154776,0.03816 0.103112,-0.05252 0.103112,-0.05252 0.05659,-0.09434 0.05659,-0.09433 z m 1.460196,-2.528089 -0.03833,-0.08176 -0.02505,0.0059 -0.02505,0.0059 -0.04656,0.202036 -0.04655,0.202036 -0.03252,0.05279 -0.03252,0.05279 0.02285,-0.0054 0.02285,-0.0054 0.09286,-0.104773 0.09286,-0.104773 0.02674,-0.0688 0.02674,-0.0688 z m -0.874282,1.430296 0.157753,-0.340541 -0.0037,-0.01554 -0.0037,-0.01554 -0.544946,0.502855 -0.544942,0.502846 -0.154069,0.144358 -0.154063,0.14435 0.0048,0.02023 0.0048,0.02023 0.169431,0.06093 0.169433,0.06093 0.09169,-0.0026 0.09169,-0.0026 0.0893,-0.0622 0.0893,-0.0622 0.189797,-0.307585 0.189792,-0.307576 z m 0.386861,-0.966607 0.05591,-0.09475 0.08149,-0.189731 0.0815,-0.189739 -0.0081,-0.0347 -0.0081,-0.0347 -0.162301,0.188089 -0.162301,0.18809 -0.661261,0.543973 -0.661267,0.543982 -0.102257,0.256491 -0.102257,0.25649 -0.0838,0.117151 -0.08381,0.117151 0.05368,0.04482 0.05368,0.04482 0.180209,-0.158933 0.1802,-0.158938 0.594814,-0.537941 0.594808,-0.537934 0.05159,-0.134333 0.05159,-0.134324 z m 0.1462,-0.700192 -0.01412,-0.02808 -0.180216,-0.06957 -0.180215,-0.06957 -0.08044,-0.128487 -0.08044,-0.128489 -0.03146,0.0076 -0.03146,0.0076 -0.200424,0.14212 -0.200429,0.142129 -0.04081,0.06624 -0.04081,0.06624 -0.08997,0.270484 -0.08997,0.270485 -0.116137,0.402815 -0.116139,0.402815 0.04883,-0.02723 0.04883,-0.02723 0.381426,-0.311288 0.381426,-0.311288 0.26941,-0.240072 0.269411,-0.240071 0.05388,-0.0846 0.05388,-0.0846 z m -1.843339,1.854898 -0.01372,-0.02736 -0.163813,0.164959 -0.163818,0.164967 -0.01203,0.02031 -0.01203,0.02031 0.06689,0.04121 0.06689,0.04121 0.122669,-0.199105 0.12267,-0.199105 z m 0.576336,-1.716036 0.01001,-0.06771 -0.115528,0.120464 -0.115527,0.120464 -0.182968,0.415459 -0.182967,0.41546 -0.161045,0.390381 -0.161046,0.390382 0.02567,-0.0059 0.02566,-0.0059 0.202755,-0.176826 0.202749,-0.176817 0.22114,-0.675867 0.221139,-0.675868 z m 0.504365,-0.7224 -0.09588,-0.0391 -0.07551,0.02489 -0.07551,0.02489 -0.109028,0.135803 -0.109027,0.135803 -0.05755,0.134868 -0.05755,0.134868 0.03535,-0.0086 0.03535,-0.0086 0.288051,-0.228587 0.288051,-0.228586 0.01455,-0.01923 0.01455,-0.01923 z m -1.481011,2.328205 0.154081,-0.340701 0.191689,-0.435621 0.191684,-0.435613 -0.0032,-0.01421 -0.0032,-0.01421 -0.205303,0.181058 -0.205304,0.181058 -0.3064,0.291114 -0.306399,0.291115 -0.04443,0.04651 -0.04438,0.04642 -0.009,0.0931 -0.009,0.0931 0.112677,0.145062 0.112677,0.145063 0.05989,0.06145 0.05989,0.06145 0.0463,-0.02257 0.04629,-0.02257 0.0036,-0.0049 0.0036,-0.0049 z m 0.846003,-1.917014 0.133827,-0.259004 -0.01659,-0.01022 -0.01659,-0.01022 -0.390519,0.43309 -0.390514,0.433082 -0.247972,0.290195 -0.247972,0.290196 -0.03739,0.06001 -0.03739,0.06001 0.0258,0.01589 0.0258,0.01589 0.354194,-0.307805 0.354201,-0.307813 0.123233,-0.108645 0.123242,-0.10864 0.05542,-0.113506 0.05543,-0.113514 z"
       id="path474" /><path
       style="fill:#f6faff;fill-opacity:1;stroke-width:0.118784"
       d="m 166.22852,5.8566227 0.0679,0.05063 0.11528,0.175195 0.11527,0.175196 0.31342,0.855841 0.31342,0.855835 0.22094,0.739065 0.22095,0.739065 0.41095,1.2217323 0.41096,1.221733 0.21576,0.49541 0.21575,0.49541 0.0275,0.166841 0.0275,0.166841 -0.0348,0.08155 -0.0348,0.08156 -0.12647,0.157884 -0.12647,0.157885 -0.036,-0.0074 -0.036,-0.0074 -0.0727,-0.198467 -0.0727,-0.198469 -0.11981,-0.274092 -0.11982,-0.274092 -0.19358,-0.481363 -0.19358,-0.481362 -0.26073,-0.674322 -0.26073,-0.674322 -0.19925,-0.5143223 -0.19934,-0.514288 -0.0332,-0.02609 -0.0332,-0.0261 -0.0248,-0.127834 -0.0248,-0.127834 0.0837,-0.12162 0.0837,-0.121616 0.005,-0.09496 0.005,-0.09496 -0.16756,-0.297196 -0.16755,-0.297192 -0.29367,-0.762667 -0.29367,-0.762666 -0.097,-0.125108 -0.097,-0.125105 -0.009,-0.081 -0.009,-0.081 0.12774,-0.127962 0.12774,-0.127959 0.0804,-0.02977 0.0804,-0.02977 z m 0.12087,0.993489 0.009,0.05501 0.0553,8.66e-4 0.0553,8.66e-4 0.02,-0.04296 0.02,-0.04296 -0.0363,-0.04164 -0.0363,-0.04164 -0.0477,0.02868 -0.0478,0.02868 z m 0.24541,0.65659 -8.4e-4,0.05274 0.0459,0.02136 0.0459,0.02135 0.0301,-0.06494 0.0301,-0.06494 -0.0318,-0.02503 -0.0318,-0.02503 -0.0435,0.0159 -0.0435,0.0159 z m 0.22663,0.620991 -8.5e-4,0.05388 0.0506,0.01039 0.0505,0.01039 0.0256,-0.05514 0.0256,-0.05514 -0.0318,-0.02503 -0.0318,-0.02503 -0.0435,0.0159 -0.0435,0.0159 z"
       id="path473" /><path
       style="fill:#f6faff;fill-opacity:1;stroke-width:0.118784"
       d="m 50.958559,63.124516 -0.0533,-0.05299 -0.0916,-0.298569 -0.0916,-0.298568 -0.0478,-0.267141 -0.0478,-0.267141 -0.005,-1.351417 -0.005,-1.351417 -0.002,-0.958563 -0.002,-0.958564 0.0517,-0.314282 0.0517,-0.314283 0.0357,-0.164999 0.0357,-0.164999 h 0.0274 0.0274 l 0.10825,0.228135 0.10826,0.228135 0.0828,0.251147 0.0829,0.251146 0.0929,0.463947 0.0929,0.463947 0.0762,0.541759 0.0762,0.541759 0.0213,0.225871 0.0213,0.225869 -0.11326,0.02125 -0.11327,0.02125 -0.0783,0.06159 -0.0783,0.06159 v 0.148198 0.148198 l 0.0469,0.375945 0.0469,0.375945 8.5e-4,0.502853 8.5e-4,0.502853 0.0461,0.345712 0.0461,0.34571 -0.0198,0.06286 -0.0198,0.06286 -0.0762,0.100026 -0.0762,0.100026 -0.10315,0.07868 -0.10316,0.07868 z m 0.11959,-0.517841 0.0331,-0.05254 -0.0529,-0.05289 -0.0529,-0.05289 -0.0487,0.04043 -0.0487,0.04043 v 0.03701 0.03701 l 0.0381,0.03811 0.0381,0.03811 0.0304,-0.01012 0.0304,-0.01012 z m -0.0915,-1.122281 v -0.07771 l -0.0551,-0.01061 -0.0551,-0.01061 -0.019,0.04946 -0.019,0.04946 0.019,0.04946 0.019,0.04947 0.0551,-0.01061 0.0551,-0.01061 z m -0.0358,-0.989992 0.0181,-0.04714 -0.0181,-0.04714 -0.0181,-0.04714 h -0.0561 -0.0561 l -0.0181,0.04714 -0.0181,0.04714 0.0181,0.04714 0.0181,0.04714 h 0.0561 0.0561 z"
       id="path472" /><path
       style="fill:#f6faff;fill-opacity:1;stroke-width:0.118784"
       d="m 6.6241319,39.276765 -0.01649,-0.05043 0.1957405,-0.343196 0.1957405,-0.343195 0.049723,-0.221384 0.049722,-0.221381 0.037154,-0.514172 0.037136,-0.514182 0.073837,-0.328055 0.073838,-0.328057 0.1589694,-0.349387 0.158969,-0.349387 -0.028249,-0.07368 -0.028249,-0.07368 -0.057009,0.01295 -0.057009,0.01295 -0.107434,0.126419 -0.1074335,0.126418 -0.275818,0.584884 -0.2758172,0.584883 -0.102778,0.353094 -0.1027784,0.353094 -0.1561562,0.282103 -0.1561562,0.282103 -0.1160941,0.03797 -0.1160986,0.03798 -0.5950627,-0.30149 -0.5950539,-0.301485 -0.07805,-0.09743 -0.078059,-0.09744 0.057945,-0.199775 0.057945,-0.199776 0.1979599,-0.282082 0.1979595,-0.282082 0.1587017,-0.236679 0.1587022,-0.236681 0.2537165,-0.502983 0.253716,-0.502983 0.023589,-0.157631 0.023589,-0.157632 -0.020714,-0.0339 -0.02071,-0.03391 -0.064013,0.03253 -0.064013,0.03253 L 5.66783,35.101964 5.5161202,35.4014 5.3159184,35.630379 5.1157162,35.85936 l -0.2735494,0.248957 -0.2735397,0.24896 -0.2510864,0.242722 -0.2510861,0.242722 -0.1641201,0.334994 -0.1641206,0.334994 -0.087639,0.07474 -0.08764,0.07474 -0.083227,-0.04217 -0.083228,-0.04217 -0.036729,-0.04057 -0.03664,-0.04053 -0.00178,-0.14629 -0.00177,-0.14629 0.148251,-0.294822 0.148252,-0.294824 0.091921,-0.09624 0.091922,-0.09625 0.2511468,-0.152722 0.2511477,-0.152723 0.1831801,-0.118583 0.1831707,-0.118587 0.2526843,-0.247514 0.2526848,-0.247514 0.1427745,-0.203916 0.1426853,-0.203961 0.1088552,-0.328138 0.1088552,-0.328138 0.00754,-0.189669 0.00754,-0.189669 0.017852,-0.03524 0.017852,-0.03524 0.059696,-0.01361 0.059696,-0.01361 0.052797,-0.104208 0.052797,-0.104209 0.087068,0.0036 0.087068,0.0036 0.058678,-0.07466 0.058678,-0.07466 0.075996,0.05976 0.075997,0.05976 0.083965,-0.04115 0.083965,-0.04115 0.029432,0.07666 0.029432,0.07666 0.090431,0.0096 0.090431,0.0096 0.1103098,0.05589 0.1103188,0.05589 0.063648,-0.125625 0.063648,-0.125625 0.079027,0.01793 0.079027,0.01793 0.010919,-0.02155 0.010924,-0.02156 -0.024335,-0.05618 -0.024335,-0.05618 0.034218,-0.06754 0.034217,-0.06754 0.050191,0.0052 0.050191,0.0052 0.026887,-0.05307 0.026887,-0.05307 -0.042015,-0.02129 -0.042015,-0.02129 0.035957,-0.07097 0.035957,-0.07097 0.050191,0.0052 0.050191,0.0052 0.018268,-0.03606 0.018268,-0.03606 -0.033839,-0.03742 -0.033839,-0.03742 0.031289,-0.06176 0.031289,-0.06176 0.075578,-0.02903 0.075578,-0.02903 -0.034694,-0.05167 -0.034694,-0.05167 0.03307,-0.06527 0.033074,-0.06528 0.082984,-0.0098 0.082984,-0.0098 -0.045242,-0.0647 -0.045242,-0.0647 0.036997,-0.07302 0.036997,-0.07302 0.065047,-0.01067 0.065047,-0.01067 -0.023404,-0.07152 -0.023404,-0.07152 0.016642,-0.03309 0.016633,-0.03309 L 7.8891573,31.74283 7.7389284,31.535487 7.6773265,31.394281 7.6157245,31.253076 7.6153366,31.107588 7.6149487,30.9621 l 0.073688,-0.179737 0.073599,-0.179783 0.1488093,-0.118472 0.1488093,-0.118472 0.1931317,-0.06477 0.1931318,-0.06477 0.028813,0.0146 0.028813,0.0146 0.1177988,-0.0044 0.1178076,-0.0044 0.151351,0.03064 0.1513421,0.03064 0.2275361,0.130696 0.227536,0.130696 0.1404748,0.204358 0.1404837,0.204363 0.04029,0.112091 0.04029,0.11209 -0.00112,0.175675 -0.00121,0.17563 -0.098636,0.194681 -0.098635,0.19468 -0.1266434,0.09397 -0.1265541,0.09402 -0.1530322,0.03728 -0.1530228,0.03729 -0.2592427,1.88e-4 -0.2592428,1.89e-4 -0.055718,0.079 -0.055718,0.079 -0.010011,0.09233 -0.010011,0.09233 -0.068384,0.05465 -0.068384,0.05465 0.018493,0.03032 0.018493,0.03032 -0.046035,0.09086 -0.046036,0.09086 -0.050673,0.0166 -0.050673,0.0166 0.016587,0.05068 0.016587,0.05068 -0.029829,0.05887 -0.029829,0.05888 -0.050673,0.0166 -0.050673,0.0166 0.016587,0.05068 0.016587,0.05068 -0.036929,0.07289 -0.036929,0.07289 -0.050673,0.0166 -0.050673,0.0166 0.016587,0.05068 0.016587,0.05068 -0.038931,0.07684 -0.038936,0.07685 -0.036787,0.0031 -0.036792,0.0031 -0.018928,0.03736 -0.018928,0.03736 0.056292,0.04887 0.056287,0.04888 -0.034187,0.133413 -0.034187,0.133413 0.1430711,0.100087 0.1430621,0.100082 0.081121,-0.0017 0.081121,-0.0017 0.01189,0.08296 0.011889,0.08296 0.052809,0.02676 0.052809,0.02676 0.032009,-0.01959 0.032009,-0.01959 0.018794,0.03083 0.018883,0.03088 -0.028953,0.04387 -0.028949,0.04386 -0.00354,0.05986 -0.00354,0.05986 0.068776,0.03485 0.068776,0.03484 -0.080205,0.112947 -0.080206,0.112946 0.050923,0.04508 0.050923,0.04508 -0.030304,0.05981 -0.030303,0.05981 -0.1077625,0.07861 -0.1077621,0.07861 -0.1634541,0.161317 -0.163543,0.161271 -0.1837624,0.364912 -0.1837621,0.364911 -0.029726,0.239663 -0.029726,0.239664 0.0288,0.394042 0.028809,0.394046 -5.277e-4,0.184025 -5.282e-4,0.184026 -0.047657,0.196728 -0.047568,0.196774 -0.1347255,0.266444 -0.1347344,0.26644 -0.086205,0.09448 -0.086205,0.09447 -0.1194812,0.03912 -0.1194857,0.03913 -0.038625,-0.01957 -0.038625,-0.01957 z m -1.0167593,-2.231971 0.1062207,0.05113 0.020808,-0.04107 0.020808,-0.04107 -0.040906,-0.05844 -0.040906,-0.05844 0.027786,-0.05484 0.027786,-0.05484 0.073853,-0.0066 0.073849,-0.0066 0.024871,-0.04909 0.024871,-0.04909 -0.038366,-0.06345 -0.03837,-0.06344 0.024491,-0.04834 0.024491,-0.04834 0.071313,-0.0016 0.071313,-0.0016 0.027786,-0.05484 0.027791,-0.05485 -0.03837,-0.06344 -0.03837,-0.06344 0.015683,-0.03095 0.015687,-0.03096 0.081817,-0.02231 0.081816,-0.02231 0.024473,-0.0483 0.024473,-0.0483 -0.039176,-0.06915 -0.039176,-0.06915 0.1024045,-0.222033 0.1024039,-0.222033 -0.019811,-0.07263 -0.019811,-0.07264 0.05119,-0.101035 0.05119,-0.101036 -0.047093,-0.04622 -0.047093,-0.04622 -0.06824,-0.01112 -0.068245,-0.01111 -0.030672,0.0955 -0.030672,0.0955 -0.066424,0.212971 -0.066424,0.212969 -0.1757386,0.303938 -0.1757382,0.303937 -0.1726263,0.241816 -0.1726273,0.241818 -0.063587,0.07992 -0.063588,0.07993 0.1035034,0.06426 0.1034945,0.06425 0.044727,0.01593 0.044727,0.01593 z m 0.7471588,0.384715 0.01034,-0.02118 0.1273273,-0.3896 0.1273269,-0.389599 0.2159303,-0.42619 0.2159307,-0.426191 0.1114746,-0.116472 0.111475,-0.116473 0.0042,-0.0075 0.00421,-0.0075 -0.058202,-0.0639 -0.058202,-0.0639 -0.076816,-0.01743 -0.076816,-0.01743 -0.062824,0.123999 -0.062825,0.124 -0.05028,-0.0052 -0.050191,-0.0052 -0.1521648,0.300334 -0.1521645,0.300333 -0.1009919,0.02542 -0.100992,0.02542 -0.017314,0.03417 -0.017314,0.03417 0.045897,0.100582 0.045896,0.100581 -0.1078278,0.02165 -0.1078278,0.02165 -0.018074,0.03567 -0.018074,0.03567 0.030398,0.07918 0.030402,0.07917 -0.019552,0.03859 -0.019552,0.03859 -0.051143,-0.0053 -0.051147,-0.0053 -0.056263,0.03936 -0.056264,0.03936 0.046273,0.126612 0.046273,0.126613 -0.03235,0.01982 -0.03235,0.01982 0.2119133,0.107366 0.2119222,0.107371 z m 1.8164847,-6.025539 0.1646117,-0.0539 0.1419672,0.03759 0.1419672,0.03759 0.1083043,0.08405 0.1083133,0.08406 0.021044,0.01223 0.021044,0.01223 0.065766,0.176244 0.065757,0.176239 0.1871947,-0.0569 0.1871952,-0.0569 0.058599,-0.06743 0.058599,-0.06743 0.030401,-0.104477 0.030401,-0.104477 -0.062094,-0.161477 -0.062103,-0.16148 -0.0893,-0.11143 -0.0893,-0.111429 -0.2399,-0.122334 -0.2399,-0.122334 -0.1624163,-0.0296 -0.1624073,-0.0296 -0.1828506,0.04724 -0.1828511,0.04724 -0.078784,0.06766 -0.078784,0.06766 -0.044213,0.126649 -0.044213,0.126649 0.053273,0.141515 0.053273,0.141516 0.028456,0.01442 0.028456,0.01442 z"
       id="path471" /><path
       style="fill:#f6faff;fill-opacity:1;stroke-width:0.118784"
       d="m 232.06207,35.163869 -0.0715,0.06255 -0.22464,0.178529 -0.22464,0.178521 -0.20384,0.133871 -0.20385,0.133878 -0.27457,0.11272 -0.27458,0.112719 -0.38131,0.01714 -0.38132,0.01714 -0.30358,-0.03393 -0.30357,-0.03394 -0.13753,-0.03416 -0.13754,-0.03416 -0.0893,-0.07997 -0.0893,-0.07997 -0.0337,-0.08962 -0.0337,-0.08962 -0.004,-0.122921 -0.004,-0.122921 0.0588,-0.189025 0.0587,-0.189024 0.17241,-0.328813 0.17242,-0.328821 0.26129,-0.391177 0.26129,-0.391176 0.38491,-0.456881 0.38492,-0.45688 0.35386,-0.337036 0.35386,-0.337035 0.20002,-0.158376 0.20003,-0.158383 0.24545,-0.180986 0.24546,-0.180987 0.16066,-0.0891 0.16067,-0.0891 0.17982,-0.07006 0.17981,-0.07006 0.21421,-0.06131 0.2142,-0.06131 0.13353,-0.17373 0.13353,-0.17373 0.0103,-0.130696 0.0103,-0.130697 0.11976,-0.09234 0.11976,-0.09234 0.21784,-0.247909 0.21782,-0.247901 0.19016,-0.357071 0.19015,-0.357064 0.1519,-0.243671 0.15189,-0.243663 0.26983,-0.332005 0.26983,-0.332012 0.0707,-0.04782 0.0707,-0.04782 0.14609,-0.0176 0.1461,-0.01761 0.0652,0.0584 0.0652,0.0584 0.0145,0.08961 0.0145,0.08961 -0.0604,0.06969 -0.0604,0.06969 -0.28404,0.253967 -0.28404,0.253968 -0.2017,0.302909 -0.20169,0.302901 -0.21218,0.400196 -0.21218,0.400188 -0.17574,0.410405 -0.17574,0.410398 -0.0376,0.04194 -0.0376,0.04194 -0.0255,-0.02281 -0.0255,-0.02281 -0.074,0.113008 -0.074,0.113008 -0.0887,0.148414 -0.0888,0.148415 0.0413,0.58008 0.0413,0.580074 -0.0358,0.272715 -0.0358,0.272706 -0.0499,0.133264 -0.0499,0.133263 -0.20011,0.317848 -0.20012,0.317856 -0.24653,0.323249 -0.24653,0.323256 -0.2468,0.268563 -0.24681,0.268571 z"
       id="path470" /><path
       style="fill:#f6faff;fill-opacity:1;stroke-width:0.118784"
       d="m 46.152717,40.727121 0.0679,0.05063 0.11528,0.175195 0.11527,0.175196 0.31342,0.855841 0.31342,0.855835 0.22094,0.739065 0.22095,0.739065 0.41095,1.221732 0.41096,1.221733 0.21576,0.49541 0.21575,0.49541 0.0275,0.166841 0.0275,0.166841 -0.0348,0.08155 -0.0348,0.08156 -0.12647,0.157884 -0.12647,0.157885 -0.036,-0.0074 -0.036,-0.0074 -0.0727,-0.198467 -0.0727,-0.198469 -0.11981,-0.274092 -0.11982,-0.274092 -0.19358,-0.481363 -0.19358,-0.481362 -0.26073,-0.674322 -0.26073,-0.674322 -0.19925,-0.514322 -0.19934,-0.514288 -0.0332,-0.02609 -0.0332,-0.0261 -0.0248,-0.127834 -0.0248,-0.127834 0.0837,-0.12162 0.0837,-0.121616 0.005,-0.09496 0.005,-0.09496 -0.16756,-0.297196 -0.16755,-0.297192 -0.29367,-0.762667 -0.29367,-0.762666 -0.097,-0.125108 -0.097,-0.125105 -0.009,-0.081 -0.009,-0.081 0.12774,-0.127962 0.12774,-0.127959 0.0804,-0.02977 0.0804,-0.02977 z m 0.12087,0.993489 0.009,0.05501 0.0553,8.66e-4 0.0553,8.66e-4 0.02,-0.04296 0.02,-0.04296 -0.0363,-0.04164 -0.0363,-0.04164 -0.0477,0.02868 -0.0478,0.02868 z m 0.24541,0.65659 -8.4e-4,0.05274 0.0459,0.02136 0.0459,0.02135 0.0301,-0.06494 0.0301,-0.06494 -0.0318,-0.02503 -0.0318,-0.02503 -0.0435,0.0159 -0.0435,0.0159 z m 0.22663,0.620991 -8.5e-4,0.05388 0.0506,0.01039 0.0505,0.01039 0.0256,-0.05514 0.0256,-0.05514 -0.0318,-0.02503 -0.0318,-0.02503 -0.0435,0.0159 -0.0435,0.0159 z"
       id="path497" /><path
       style="fill:#f6faff;fill-opacity:1;stroke-width:0.118784"
       d="m 78.631875,60.331273 -0.0715,0.06255 -0.22464,0.178529 -0.22464,0.178521 -0.20384,0.133871 -0.20385,0.133878 -0.27457,0.11272 -0.27458,0.112719 -0.38131,0.01714 -0.38132,0.01714 -0.30358,-0.03393 -0.30357,-0.03394 -0.13753,-0.03416 -0.13754,-0.03416 -0.0893,-0.07997 -0.0893,-0.07997 -0.0337,-0.08962 -0.0337,-0.08962 -0.004,-0.122921 -0.004,-0.122921 0.0588,-0.189025 0.0587,-0.189024 0.17241,-0.328813 0.17242,-0.328821 0.26129,-0.391177 0.26129,-0.391176 0.38491,-0.456881 0.38492,-0.45688 0.35386,-0.337036 0.35386,-0.337035 0.20002,-0.158376 0.20003,-0.158383 0.24545,-0.180986 0.24546,-0.180987 0.16066,-0.0891 0.16067,-0.0891 0.17982,-0.07006 0.17981,-0.07006 0.21421,-0.06131 0.2142,-0.06131 0.13353,-0.17373 0.13353,-0.17373 0.0103,-0.130696 0.0103,-0.130697 0.11976,-0.09234 0.11976,-0.09234 0.21784,-0.247909 0.21782,-0.247901 0.19016,-0.357071 0.19015,-0.357064 0.1519,-0.243671 0.15189,-0.243663 0.26983,-0.332005 0.26983,-0.332012 0.0707,-0.04782 0.0707,-0.04782 0.14609,-0.0176 0.1461,-0.01761 0.0652,0.0584 0.0652,0.0584 0.0145,0.08961 0.0145,0.08961 -0.0604,0.06969 -0.0604,0.06969 -0.28404,0.253967 -0.28404,0.253968 -0.2017,0.302909 -0.20169,0.302901 -0.21218,0.400196 -0.21218,0.400188 -0.17574,0.410405 -0.17574,0.410398 -0.0376,0.04194 -0.0376,0.04194 -0.0255,-0.02281 -0.0255,-0.02281 -0.074,0.113008 -0.074,0.113008 -0.0887,0.148414 -0.0888,0.148415 0.0413,0.58008 0.0413,0.580074 -0.0358,0.272715 -0.0358,0.272706 -0.0499,0.133264 -0.0499,0.133263 -0.20011,0.317848 -0.20012,0.317856 -0.24653,0.323249 -0.24653,0.323256 -0.2468,0.268563 -0.24681,0.268571 z"
       id="path498" /><path
       style="fill:#f6faff;fill-opacity:1;stroke-width:0.118784"
       d="m 252.68413,39.863492 0.0446,0.0707 0.0182,0.0629 0.0182,0.0629 0.0486,0.32609 0.0486,0.32608 0.0308,0.45761 0.0308,0.4576 -0.0323,0.34773 -0.0323,0.34773 -0.0467,0.26714 -0.0467,0.26714 -0.0199,0.2727 -0.0199,0.27269 0.0384,0.19519 0.0384,0.1952 0.0284,0.0507 0.0284,0.0507 0.14385,0.32999 0.14386,0.33 0.0415,0.0943 0.0415,0.0943 0.0643,0.20429 0.0643,0.20428 0.0656,0.25809 0.0656,0.25809 0.0755,0.63761 0.0755,0.63762 0.0221,0.3058 0.0221,0.3058 -0.0901,0.0345 -0.0901,0.0345 -0.94962,-0.0103 -0.94961,-0.0103 -0.0472,-0.0472 -0.0472,-0.0472 0.0309,-0.48709 0.0309,-0.48709 0.0638,-0.46745 0.0638,-0.46745 0.062,-0.30255 0.062,-0.30254 0.0768,-0.25142 0.0767,-0.25143 0.18183,-0.34571 0.18184,-0.34571 -0.002,-0.39285 -0.002,-0.39286 -0.0755,-0.45571 -0.0755,-0.45571 -0.001,-0.84856 -0.001,-0.84857 0.0561,-0.23881 0.0561,-0.2388 0.063,-0.0676 0.063,-0.0676 h 0.10805 0.10805 z m -0.2331,0.19811 -0.0405,0.0488 v 0.13203 0.13203 l 0.0378,0.0706 0.0378,0.0706 h 0.0603 0.0603 l 0.0327,-0.11786 0.0327,-0.11786 1.3e-4,-0.0246 1.1e-4,-0.0246 -0.0455,-0.10898 -0.0455,-0.10899 h -0.0449 -0.0449 z m -0.28077,4.80621 -0.0687,0.0622 -0.0436,0.10436 -0.0436,0.10435 -0.0467,0.22628 -0.0467,0.22628 -0.0643,0.60678 -0.0643,0.60678 v 0.21474 0.21473 l 0.055,0.0674 0.055,0.0674 0.68571,0.0103 0.68571,0.0102 0.0525,-0.0802 0.0525,-0.0802 0.0111,-0.22185 0.0111,-0.22185 -0.0686,-0.47142 -0.0686,-0.47143 -0.0781,-0.39283 -0.0781,-0.39282 -0.063,-0.10198 -0.063,-0.10197 -0.048,-0.0268 -0.048,-0.0268 -0.32343,0.003 -0.32343,0.003 z"
       id="path499" /><path
       style="fill:#f6faff;fill-opacity:1;stroke-width:0.118784"
       d="m 260.61545,60.832236 0.053,-0.0533 0.29857,-0.0916 0.29857,-0.0916 0.26714,-0.0478 0.26714,-0.0478 1.35142,-0.005 1.35142,-0.005 0.95856,-0.002 0.95856,-0.002 0.31428,0.0517 0.31429,0.0517 0.165,0.0357 0.165,0.0357 v 0.0274 0.0274 l -0.22814,0.10825 -0.22813,0.10826 -0.25115,0.0828 -0.25115,0.0829 -0.46394,0.0929 -0.46395,0.0929 -0.54176,0.0762 -0.54176,0.0762 -0.22587,0.0213 -0.22587,0.0213 -0.0212,-0.11326 -0.0213,-0.11327 -0.0616,-0.0783 -0.0616,-0.0783 h -0.1482 -0.1482 l -0.37594,0.0469 -0.37595,0.0469 -0.50285,8.5e-4 -0.50285,8.5e-4 -0.34571,0.0461 -0.34571,0.0461 -0.0629,-0.0198 -0.0629,-0.0198 -0.10003,-0.0762 -0.10003,-0.0762 -0.0787,-0.10315 -0.0787,-0.10316 z m 0.51784,0.11959 0.0525,0.0331 0.0529,-0.0529 0.0529,-0.0529 -0.0404,-0.0487 -0.0404,-0.0487 h -0.037 -0.037 l -0.0381,0.0381 -0.0381,0.0381 0.0101,0.0304 0.0101,0.0304 z m 1.12228,-0.0915 h 0.0777 l 0.0106,-0.0551 0.0106,-0.0551 -0.0495,-0.019 -0.0495,-0.019 -0.0495,0.019 -0.0495,0.019 0.0106,0.0551 0.0106,0.0551 z m 0.99,-0.0358 0.0471,0.0181 0.0471,-0.0181 0.0471,-0.0181 v -0.0561 -0.0561 l -0.0471,-0.0181 -0.0471,-0.0181 -0.0471,0.0181 -0.0471,0.0181 v 0.0561 0.0561 z"
       id="path500" /></g></svg>
