<?xml version="1.0" encoding="UTF-8" standalone="no"?>
<!-- Created with Inkscape (http://www.inkscape.org/) -->

<svg
   width="76"
   height="24"
   viewBox="0 0 20.108333 6.35"
   version="1.1"
   id="svg1"
   sodipodi:docname="fontawesome.svg"
   inkscape:version="1.3.2 (091e20e, 2023-11-25, custom)"
   xml:space="preserve"
   xmlns:inkscape="http://www.inkscape.org/namespaces/inkscape"
   xmlns:sodipodi="http://sodipodi.sourceforge.net/DTD/sodipodi-0.dtd"
   xmlns="http://www.w3.org/2000/svg"
   xmlns:svg="http://www.w3.org/2000/svg"><sodipodi:namedview
     id="namedview1"
     pagecolor="#ffffff"
     bordercolor="#000000"
     borderopacity="0.25"
     inkscape:showpageshadow="2"
     inkscape:pageopacity="0.0"
     inkscape:pagecheckerboard="0"
     inkscape:deskcolor="#d1d1d1"
     inkscape:document-units="px"
     inkscape:zoom="8.6531454"
     inkscape:cx="36.287383"
     inkscape:cy="25.019804"
     inkscape:window-width="1920"
     inkscape:window-height="1017"
     inkscape:window-x="-8"
     inkscape:window-y="-8"
     inkscape:window-maximized="1"
     inkscape:current-layer="layer1" /><defs
     id="defs1" /><g
     inkscape:label="Layer 1"
     inkscape:groupmode="layer"
     id="layer1"><g
       id="g1"
       transform="translate(-0.09095579)"><text
         xml:space="preserve"
         style="font-size:2.11667px;font-family:Anisette;-inkscape-font-specification:'Anisette, Normal';fill:#146ebe;fill-opacity:1;stroke:none;stroke-width:0.47625;stroke-linecap:round;stroke-linejoin:round;stroke-dashoffset:3.49999"
         x="4.2240305"
         y="3.9031219"
         id="text3"><tspan
           sodipodi:role="line"
           id="tspan3"
           x="4.2240305"
           y="3.9031219"
           style="font-style:normal;font-variant:normal;font-weight:bold;font-stretch:normal;font-size:2.11667px;font-family:'Segoe UI';-inkscape-font-specification:'Segoe UI, Bold';font-variant-ligatures:normal;font-variant-caps:normal;font-variant-numeric:normal;font-variant-east-asian:normal;fill:#146ebe;fill-opacity:1;stroke:none;stroke-width:0.47625">Font Awesome</tspan></text><path
         id="path3"
         style="fill:#146ebe;fill-opacity:1;stroke:none;stroke-width:0.782497;stroke-linecap:round;stroke-linejoin:round;stroke-dashoffset:3.49999"
         d="M 1.7263155,1.8521075 A 0.27782084,0.27782084 0 0 0 1.452112,2.1328222 0.27782084,0.27782084 0 0 0 1.564254,2.3520403 v 1.9555981 c 0,0.1053575 0.074684,0.1902783 0.1671267,0.1902783 0.092442,0 0.1671265,-0.084921 0.1671265,-0.1902783 V 3.8771607 C 1.921426,3.8660982 2.2736314,3.6972257 2.4700657,3.6955644 2.7272792,3.6933894 2.9522569,3.916033 3.2094744,3.9176762 3.3885756,3.9188205 3.7260466,3.7693607 3.7260466,3.7693607 V 2.3788093 c 0,0 -0.3266367,0.1479455 -0.5006562,0.1483159 C 2.9605492,2.5276888 2.7269195,2.3010932 2.4621066,2.3050133 2.2682196,2.3078806 1.9214027,2.4754808 1.8985065,2.4866097 V 2.3505928 a 0.27782084,0.27782084 0 0 0 0.1092462,-0.220665 v -0.00507 A 0.27782084,0.27782084 0 0 0 1.7263155,1.8521075 Z" /></g></g></svg>
