<?xml version="1.0" encoding="UTF-8" standalone="no"?>
<!-- Created with Inkscape (http://www.inkscape.org/) -->

<svg
   width="48"
   height="24"
   viewBox="0 0 12.7 6.35"
   version="1.1"
   id="svg1"
   sodipodi:docname="laravel.svg"
   inkscape:version="1.3.2 (091e20e, 2023-11-25, custom)"
   xml:space="preserve"
   xmlns:inkscape="http://www.inkscape.org/namespaces/inkscape"
   xmlns:sodipodi="http://sodipodi.sourceforge.net/DTD/sodipodi-0.dtd"
   xmlns="http://www.w3.org/2000/svg"
   xmlns:svg="http://www.w3.org/2000/svg"><sodipodi:namedview
     id="namedview1"
     pagecolor="#ffffff"
     bordercolor="#000000"
     borderopacity="0.25"
     inkscape:showpageshadow="2"
     inkscape:pageopacity="0.0"
     inkscape:pagecheckerboard="0"
     inkscape:deskcolor="#d1d1d1"
     inkscape:document-units="px"
     inkscape:zoom="11.194444"
     inkscape:cx="17.151365"
     inkscape:cy="12.014888"
     inkscape:window-width="1920"
     inkscape:window-height="1017"
     inkscape:window-x="-8"
     inkscape:window-y="-8"
     inkscape:window-maximized="1"
     inkscape:current-layer="layer1" /><defs
     id="defs1" /><g
     inkscape:label="Layer 1"
     inkscape:groupmode="layer"
     id="layer1"><path
       style="fill:#ff0000;fill-opacity:1"
       d="M 2.2106563,4.6138007 C 2.1265776,4.5646887 1.8647191,4.4136357 1.6287486,4.2781274 1.3927781,4.142619 1.1957446,4.0255114 1.1908963,4.0178881 c -0.00485,-0.00762 -0.0089,-0.4619512 -0.009,-1.0096176 -1.518e-4,-0.8398638 0.00241,-0.9983448 0.016348,-1.0122852 0.024427,-0.024428 0.5886709,-0.349689 0.6066188,-0.349689 0.028174,0 0.6104174,0.3423434 0.6163741,0.3624115 0.00323,0.01087 0.00541,0.2937883 0.00485,0.6287064 -5.568e-4,0.3349181 0.00108,0.6110338 0.00364,0.6135905 0.00256,0.00256 0.1130606,-0.05737 0.2455642,-0.1331695 L 2.9162119,2.9800173 2.9220915,2.6466041 2.9279711,2.3131909 3.2219526,2.1444413 C 3.3836424,2.051629 3.5244649,1.975661 3.5348914,1.9756236 c 0.017897,-6.42e-5 0.5202862,0.282332 0.5895844,0.3314093 l 0.032338,0.022902 v 0.3456338 c 0,0.2626581 -0.00355,0.3489538 -0.014805,0.3594633 -0.00814,0.00761 -0.1364654,0.083445 -0.285162,0.1685297 L 3.5864893,3.3582618 3.5806093,3.691137 3.5747293,4.0240122 3.3689422,4.1441112 C 3.2557605,4.2101656 3.1287605,4.2831475 3.0867211,4.3062931 3.0446818,4.3294388 2.8727045,4.4283248 2.7045495,4.5260399 2.5363944,4.6237549 2.3908736,4.7035667 2.3811698,4.7033995 2.3714661,4.7032322 2.294735,4.6629128 2.2106563,4.6138007 Z M 2.3341285,4.299449 c 0,-0.2058825 -0.00369,-0.2778215 -0.014699,-0.286528 C 2.3113449,4.0065271 2.1883137,3.9362873 2.0460266,3.8568326 1.9037396,3.7773779 1.7820313,3.7076163 1.7755637,3.7018069 1.7681252,3.6951254 1.761644,3.4488013 1.7579248,3.0314208 L 1.7520452,2.3715972 1.5184425,2.2382523 C 1.389961,2.1649126 1.2827731,2.1049074 1.2802471,2.1049074 c -0.00253,0 -0.00324,0.4212657 -0.00158,0.9361459 l 0.00301,0.9361459 0.3116204,0.1790053 c 0.1713912,0.098453 0.4042245,0.2326871 0.5174074,0.2982981 0.1131828,0.065611 0.2097558,0.1194179 0.2146065,0.1195709 0.00485,1.53e-4 0.00882,-0.123428 0.00882,-0.2746245 z M 2.898573,4.3132 C 3.1346401,4.1767952 3.3635047,4.0445816 3.4071609,4.0193918 l 0.079375,-0.0458 V 3.6977683 c 0,-0.1517032 -0.00223,-0.2758239 -0.00495,-0.2758239 -0.00272,0 -0.1416268,0.078487 -0.3086805,0.1744149 C 3.0058516,3.6922873 2.779213,3.8215696 2.6692639,3.8836529 2.5593148,3.9457359 2.4597221,4.0037123 2.4479468,4.0124888 c -0.024001,0.017889 -0.022959,0.00153 -0.02108,0.3308757 0.00124,0.2172243 0.00277,0.2329576 0.021911,0.2256736 0.011318,-0.00431 0.2137245,-0.1194336 0.4497917,-0.2558382 z M 2.9112918,3.6440254 C 3.1959229,3.481596 3.4268352,3.3427959 3.4244302,3.3355808 3.4220251,3.3283657 3.3160569,3.2631077 3.1889451,3.1905629 L 2.9578328,3.0586634 2.4725316,3.3378306 C 1.8705176,3.6841362 1.909982,3.6605697 1.9136491,3.671571 c 0.00416,0.012491 0.4459047,0.26622 0.4650045,0.267091 0.00832,3.793e-4 0.2480071,-0.1322071 0.5326382,-0.2946366 z M 2.1048229,3.4480935 2.3282489,3.3186414 2.3312951,2.710759 c 0.00168,-0.3343353 -0.00114,-0.6061025 -0.00625,-0.6039272 -0.00511,0.00218 -0.1136387,0.063879 -0.2411712,0.1371196 L 1.8519989,2.3771157 V 2.983103 c 0,0.4800289 0.00306,0.6047874 0.014699,0.6002149 0.00808,-0.00317 0.1152408,-0.064026 0.238125,-0.1352244 z M 3.4822086,2.710314 C 3.4776863,2.6985291 3.0272877,2.4341667 3.0117318,2.4341667 c -0.00403,0 -0.00733,0.1235105 -0.00733,0.2744678 v 0.2744679 l 0.238125,0.135473 0.238125,0.1354729 0.00317,-0.2656354 c 0.00174,-0.1460995 0.00102,-0.271244 -0.00162,-0.2780989 z M 3.8598924,3.0994174 4.0627397,2.9840133 V 2.70909 c 0,-0.1512078 -0.00397,-0.2747916 -0.00882,-0.2746306 -0.00485,1.61e-4 -0.1120069,0.060434 -0.238125,0.1339394 L 3.5864896,2.7020455 3.583334,2.980969 3.5801783,3.2598926 3.6186117,3.237357 C 3.6397501,3.2249625 3.7483265,3.1628896 3.8598924,3.0994174 Z M 3.7602013,2.4994791 c 0.1178892,-0.06756 0.224367,-0.1302234 0.2366175,-0.1392528 0.020425,-0.015055 0.00214,-0.027872 -0.220342,-0.1544608 L 3.5338612,2.067722 3.2990345,2.2009675 C 3.1698798,2.2742525 3.0639816,2.3398312 3.0637052,2.346698 3.0632317,2.35846 3.5155826,2.6223148 3.5362206,2.6223148 c 0.0053,0 0.1060916,-0.055276 0.2239807,-0.1228357 z M 2.0389122,2.167712 C 2.1592418,2.0987731 2.2642986,2.0364164 2.2723717,2.0291415 2.2836096,2.0190147 2.2305761,1.9835382 2.046107,1.8777826 L 1.8051639,1.7396508 1.5644148,1.8780107 C 1.4224673,1.9595887 1.3279916,2.0206965 1.3342066,2.0269114 1.3542596,2.0469644 1.7873846,2.2919818 1.803727,2.2925177 1.812747,2.2928135 1.9185826,2.2366507 2.0389122,2.167712 Z M 6.0382953,4.0549845 C 5.6357649,4.0022084 5.4304129,3.5329223 5.6557242,3.180704 5.6981901,3.1143192 5.7876407,3.0306356 5.850501,2.9984847 c 0.1421573,-0.072709 0.3193743,-0.077988 0.4505289,-0.01342 0.042257,0.020803 0.090046,0.053528 0.1061968,0.072723 0.016151,0.019194 0.032353,0.034898 0.036004,0.034898 0.00365,0 0.00664,-0.029104 0.00664,-0.064676 V 2.9633333 H 6.5733416 6.6968138 V 3.4983796 4.0334258 H 6.5733416 6.4498693 v -0.064676 c 0,-0.035572 -0.0043,-0.064676 -0.00955,-0.064676 -0.00525,0 -0.020488,0.014798 -0.03386,0.032884 -0.059594,0.080606 -0.2320095,0.1358786 -0.3681665,0.1180269 z M 6.2774929,3.8058362 C 6.4223101,3.7209677 6.483244,3.5503569 6.4312585,3.3753028 6.4068419,3.2930831 6.3158881,3.199413 6.2330682,3.1711934 6.0751918,3.1173995 5.9168315,3.1845556 5.8420987,3.3369926 c -0.027802,0.056709 -0.033,0.082133 -0.033,0.161387 0,0.079254 0.0052,0.1046784 0.033,0.1613869 0.037364,0.076214 0.1058688,0.1408534 0.1772095,0.1672112 0.07362,0.0272 0.1922756,0.017484 0.2581847,-0.021142 z M 8.0930656,4.0558069 C 8.0037484,4.0458585 7.9286747,4.0166649 7.847654,3.9603746 7.503727,3.7214265 7.5494637,3.170247 7.9282262,2.9893878 c 0.088428,-0.042224 0.095853,-0.043693 0.2208562,-0.043693 0.1187187,0 0.1346684,0.00272 0.1940277,0.033131 0.035572,0.018222 0.08452,0.052369 0.1087732,0.075882 l 0.044097,0.042751 V 3.0303957 2.9633333 H 8.6194527 8.742925 V 3.4983796 4.0334258 H 8.6194527 8.4959805 v -0.066173 -0.066174 l -0.053791,0.049583 C 8.3504448,4.0352288 8.2310765,4.0711789 8.0930656,4.0558069 Z M 8.321504,3.8068104 C 8.4478779,3.7415785 8.5029192,3.6329957 8.4934324,3.4676383 8.489324,3.3960297 8.4812141,3.365419 8.452931,3.3147679 8.3922958,3.2061789 8.2704517,3.1424825 8.1474657,3.1550801 7.8201325,3.1886092 7.7515112,3.6763456 8.0542908,3.8173353 8.1433826,3.858821 8.2271345,3.8555222 8.321504,3.8068104 Z m 2.194385,0.2482966 c -0.231024,-0.023152 -0.404121,-0.1555545 -0.46675,-0.3570173 -0.06992,-0.224917 -0.02107,-0.4429963 0.134295,-0.5995204 0.182513,-0.1838738 0.466282,-0.2132557 0.68129,-0.070542 0.09589,0.06365 0.188936,0.194556 0.213117,0.2998426 0.0052,0.022637 0.01137,0.049095 0.01372,0.058796 0.0023,0.0097 0.006,0.057326 0.0081,0.1058333 l 0.0039,0.088195 -0.418741,0.00588 c -0.472741,0.00664 -0.450837,0.00132 -0.401337,0.097469 0.03311,0.064307 0.08809,0.12168 0.146915,0.1533043 0.0376,0.020212 0.0671,0.025282 0.146991,0.025263 0.08663,-2.07e-5 0.108321,-0.00441 0.16275,-0.032933 0.03454,-0.0181 0.08601,-0.054301 0.114371,-0.080447 l 0.05157,-0.047539 0.07672,0.061046 c 0.04219,0.033575 0.07672,0.065444 0.07672,0.070819 0,0.021982 -0.140762,0.1326537 -0.217719,0.1711773 -0.09416,0.047137 -0.198009,0.063189 -0.325891,0.050373 z m 0.355204,-0.6713802 c -8.12e-4,-0.083127 -0.09098,-0.1971777 -0.183161,-0.2316659 -0.164174,-0.061425 -0.324204,-0.00253 -0.393999,0.1450033 -0.05771,0.1219791 -0.07898,0.1131209 0.271677,0.1131209 h 0.305741 z M 4.7447767,3.2280795 V 2.4224074 h 0.1293519 0.1293518 v 0.6938161 0.693816 l 0.2388416,-0.00209 c 0.1313629,-0.00115 0.2439647,0.00108 0.2502264,0.00495 0.00626,0.00387 0.011156,0.053749 0.010876,0.1108412 l -5.088e-4,0.103805 -0.3790695,0.0031 -0.3790695,0.0031 z m 2.1609976,0.2702968 -0.00317,-0.5350496 0.3380788,3.3e-6 0.3380787,3.3e-6 V 3.0868055 3.2102777 H 7.361212 7.1436657 v 0.4115741 0.411574 H 7.0263068 6.9089479 Z M 9.2259159,3.872053 c -0.121607,-0.3151781 -0.327187,-0.8561608 -0.33527,-0.8822614 -0.0081,-0.026263 -0.0073,-0.026458 0.113586,-0.026458 h 0.121781 l 0.0899,0.238125 c 0.147199,0.3898762 0.224229,0.5855181 0.228755,0.5809921 0.0023,-0.00234 0.07478,-0.1862821 0.160963,-0.4087501 l 0.1567,-0.4044874 0.12528,-0.00334 0.1252801,-0.00334 -0.02451,0.062134 c -0.04728,0.1198678 -0.337306,0.8742004 -0.36072,0.9381986 l -0.02366,0.064676 -0.15779,0.00326 -0.157791,0.00326 z M 11.271166,3.2279166 V 2.4224074 h 0.123472 0.123472 v 0.8055092 0.8055092 h -0.123472 -0.123472 z"
       id="path1" /></g></svg>
